<svg width="521" height="434" viewBox="0 0 521 434" fill="none" xmlns="http://www.w3.org/2000/svg">
<g clip-path="url(#clip0_7_2092)">
<path d="M137.72 374.242H69.8844V383.296H137.72V374.242Z" fill="#E0E0E0"/>
<path d="M79.1621 383.055C79.4283 383.055 79.6441 381.163 79.6441 378.829C79.6441 376.496 79.4283 374.604 79.1621 374.604C78.8959 374.604 78.6802 376.496 78.6802 378.829C78.6802 381.163 78.8959 383.055 79.1621 383.055Z" fill="#FAFAFA"/>
<path d="M77.5957 382.813C77.8619 382.813 78.0777 380.921 78.0777 378.588C78.0777 376.254 77.8619 374.363 77.5957 374.363C77.3296 374.363 77.1138 376.254 77.1138 378.588C77.1138 380.921 77.3296 382.813 77.5957 382.813Z" fill="#FAFAFA"/>
<path d="M132.539 383.055C132.805 383.055 133.021 381.163 133.021 378.829C133.021 376.496 132.805 374.604 132.539 374.604C132.273 374.604 132.057 376.496 132.057 378.829C132.057 381.163 132.273 383.055 132.539 383.055Z" fill="#FAFAFA"/>
<path d="M130.973 382.813C131.239 382.813 131.455 380.921 131.455 378.588C131.455 376.254 131.239 374.363 130.973 374.363C130.707 374.363 130.491 376.254 130.491 378.588C130.491 380.921 130.707 382.813 130.973 382.813Z" fill="#FAFAFA"/>
<path d="M104.827 379.554C114.409 379.554 122.177 379.337 122.177 379.071C122.177 378.804 114.409 378.588 104.827 378.588C95.2441 378.588 87.476 378.804 87.476 379.071C87.476 379.337 95.2441 379.554 104.827 379.554Z" fill="#FAFAFA"/>
<path d="M137.479 415.046H69.6434V433.155H137.479V415.046Z" fill="#E0E0E0"/>
<path d="M138.323 428.085C138.323 428.085 138.202 428.205 137.961 428.326C137.72 428.447 137.359 428.688 136.877 428.809C135.913 429.171 134.347 429.775 132.298 430.137C130.25 430.378 127.479 430.499 124.828 429.05C123.503 428.326 122.298 427.24 121.334 425.791C120.37 424.342 119.767 422.531 120.129 420.6C120.249 419.634 120.731 418.668 121.334 417.944C122.057 417.099 123.021 416.616 124.225 416.616C125.31 416.616 126.394 417.34 127.117 418.185C127.84 419.03 128.322 420.117 128.443 421.324C128.684 423.618 127.72 426.032 126.153 427.722C124.587 429.533 122.177 430.62 119.647 430.861C117.117 431.103 114.586 430.74 112.056 429.895C109.646 429.05 107.116 427.602 105.429 425.429C104.586 424.342 103.983 423.014 103.863 421.566C103.742 420.117 104.224 418.547 105.309 417.461C105.911 416.978 106.634 416.616 107.477 416.495C108.321 416.495 109.044 416.737 109.646 417.099C110.972 417.944 111.815 419.272 112.176 420.72C112.779 423.739 111.694 426.757 109.526 428.688C107.357 430.62 104.586 431.465 101.935 431.827C99.284 432.068 96.5127 431.948 93.9824 431.103C91.4521 430.258 89.2833 428.688 87.9579 426.394C86.6325 424.221 86.271 421.445 87.235 419.151C87.7169 418.065 88.8013 416.978 90.0062 416.857C91.2111 416.616 92.5365 416.978 93.38 417.702C95.3078 419.272 95.6693 421.807 94.9463 423.859C94.3439 425.912 92.898 427.481 91.5726 428.688C88.6808 431.103 85.1866 432.189 82.2949 432.31C79.2826 432.431 76.7523 431.586 74.945 430.62C73.1376 429.654 71.8122 428.567 71.0893 427.722C70.7278 427.36 70.4868 426.998 70.2458 426.757C70.1253 426.515 70.0049 426.394 70.0049 426.394C70.1253 426.274 71.3302 428.326 75.0654 430.258C76.8728 431.103 79.4031 431.948 82.2949 431.706C85.1866 431.586 88.4399 430.499 91.2111 428.085C92.5365 426.877 93.8619 425.429 94.3439 423.497C94.9463 421.686 94.5849 419.392 92.898 418.185C92.0546 417.582 91.0906 417.34 90.0062 417.461C89.0423 417.582 88.1989 418.427 87.8374 419.392C86.994 421.445 87.3555 423.859 88.5604 425.912C89.7653 427.964 91.8136 429.413 94.2234 430.258C96.6332 431.103 99.1635 431.223 101.814 430.982C104.345 430.74 106.995 429.895 108.923 428.085C110.851 426.394 111.935 423.497 111.333 420.962C110.972 419.634 110.249 418.547 109.164 417.823C108.08 417.099 106.754 417.099 105.911 418.065C105.068 418.91 104.586 420.238 104.706 421.445C104.827 422.652 105.309 423.859 106.031 424.946C107.598 426.998 109.887 428.326 112.297 429.171C114.707 430.016 117.117 430.378 119.526 430.137C121.936 429.895 124.105 428.93 125.551 427.239C127.117 425.67 127.961 423.497 127.72 421.445C127.599 419.392 126.033 417.461 124.225 417.34C123.262 417.34 122.418 417.702 121.816 418.427C121.213 419.151 120.852 419.996 120.731 420.841C120.49 422.652 120.972 424.342 121.816 425.67C122.659 426.998 123.864 428.085 125.189 428.809C127.72 430.258 130.37 430.258 132.419 430.016C134.467 429.775 136.034 429.171 136.997 428.809C137.72 428.326 138.323 428.085 138.323 428.085Z" fill="#FAFAFA"/>
<path d="M137.479 383.538H75.6679V415.046H137.479V383.538Z" fill="#EBEBEB"/>
<path d="M85.9096 415.046C86.1758 415.046 86.3915 408.236 86.3915 399.835C86.3915 391.434 86.1758 384.624 85.9096 384.624C85.6434 384.624 85.4276 391.434 85.4276 399.835C85.4276 408.236 85.6434 415.046 85.9096 415.046Z" fill="#E0E0E0"/>
<path d="M90.6087 414.322C90.8749 414.322 91.0907 407.566 91.0907 399.232C91.0907 390.897 90.8749 384.141 90.6087 384.141C90.3425 384.141 90.1267 390.897 90.1267 399.232C90.1267 407.566 90.3425 414.322 90.6087 414.322Z" fill="#E0E0E0"/>
<path d="M130.491 414.926C130.757 414.926 130.973 407.845 130.973 399.111C130.973 390.377 130.757 383.296 130.491 383.296C130.225 383.296 130.009 390.377 130.009 399.111C130.009 407.845 130.225 414.926 130.491 414.926Z" fill="#E0E0E0"/>
<path d="M124.948 414.563C125.215 414.563 125.43 407.645 125.43 399.111C125.43 390.577 125.215 383.658 124.948 383.658C124.682 383.658 124.466 390.577 124.466 399.111C124.466 407.645 124.682 414.563 124.948 414.563Z" fill="#E0E0E0"/>
<path d="M457.502 314.725C463.888 311.466 471.479 310.983 478.587 312.19C482.443 312.794 486.419 314.001 488.95 316.898C491.6 319.796 492.082 324.866 489.07 327.281C487.263 328.729 484.853 328.971 482.564 328.971C477.021 328.85 470.876 327.884 466.418 331.264C463.888 333.196 462.201 336.335 459.189 337.301C456.176 338.266 452.923 336.456 451.357 333.8C449.79 331.144 449.79 327.763 450.513 324.745C450.272 324.745 450.995 318.106 457.502 314.725Z" fill="#EBEBEB"/>
<path d="M442.802 286.355C446.778 291.909 454.369 290.098 457.863 286.718C461.357 283.337 462.924 278.388 464.249 273.559C467.382 262.814 470.515 251.466 468.225 240.481C467.502 237.221 466.297 233.962 464.008 231.426C461.719 229.012 458.104 227.563 454.971 228.408C451.116 229.374 448.706 233.237 447.019 236.738C441.958 247.241 439.308 258.951 439.187 270.661C439.067 276.094 439.79 281.889 442.802 286.355Z" fill="#EBEBEB"/>
<path d="M432.078 294.444C436.295 289.374 437.139 282.009 435.211 275.732C433.283 269.454 429.066 264.022 424.126 259.555C418.342 254.364 411.595 250.38 404.245 247.845C401.353 246.879 398.341 246.034 395.329 246.275C392.316 246.517 389.304 248.086 387.858 250.863C385.81 254.847 387.738 259.676 389.907 263.659C393.762 270.661 398.1 277.301 402.92 283.579C406.775 288.649 411.354 293.599 417.258 295.893C423.162 298.186 429.427 297.945 432.56 293.72" fill="#EBEBEB"/>
<path d="M442.561 370.862C442.681 370.862 442.802 370.017 442.922 368.326C443.043 366.516 443.284 364.101 443.645 361.324C444.007 358.427 444.368 354.926 445.212 351.184C446.055 347.441 447.26 343.337 448.947 339.111C450.634 335.007 452.682 331.264 455.092 328.246C457.502 325.228 460.273 323.055 462.803 321.848C465.454 320.52 467.743 320.037 469.31 319.796C470.876 319.675 471.84 319.554 471.84 319.434C471.84 319.313 470.876 319.313 469.31 319.434C467.623 319.554 465.213 319.916 462.562 321.244C459.791 322.452 456.899 324.625 454.369 327.763C451.839 330.782 449.67 334.645 447.983 338.87C446.296 343.095 445.091 347.2 444.368 351.063C443.645 354.926 443.284 358.427 443.043 361.445C442.802 364.343 442.681 366.757 442.681 368.447C442.44 370.017 442.44 370.862 442.561 370.862Z" fill="#E0E0E0"/>
<path d="M443.043 365.55C443.043 365.55 443.043 365.188 443.163 364.343C443.163 363.498 443.163 362.29 443.163 360.962C443.163 358.065 443.163 353.84 443.284 348.528C443.525 338.025 444.489 326.798 446.176 310.862C447.862 295.893 450.031 278.508 452.321 267.16C452.802 264.625 453.284 262.331 453.766 260.279C454.248 258.227 454.61 256.537 454.971 255.088C455.333 253.76 455.574 252.674 455.815 251.829C455.935 251.104 456.056 250.621 456.056 250.621C456.056 250.621 455.935 250.984 455.694 251.708C455.453 252.553 455.092 253.639 454.73 254.967C454.248 256.416 453.887 258.106 453.284 260.158C452.803 262.211 452.2 264.504 451.598 267.04C449.308 277.301 446.898 291.667 445.091 307.603C443.404 323.538 442.561 338.025 442.44 348.528C442.32 353.84 442.44 358.065 442.681 360.962C442.802 362.29 442.802 363.498 442.922 364.343C442.922 365.188 443.043 365.55 443.043 365.55Z" fill="#E0E0E0"/>
<path d="M443.043 337.542C443.163 337.542 443.163 336.335 443.043 334.041C442.922 331.748 442.561 328.488 441.958 324.504C441.235 320.52 440.392 315.691 438.826 310.621C438.223 308.207 436.657 302.653 433.042 294.082C428.222 282.613 421.716 273.197 415.932 267.402C414.607 265.833 413.161 264.746 411.956 263.66C411.354 263.177 410.751 262.573 410.269 262.211C409.667 261.849 409.185 261.487 408.703 261.124C406.775 259.796 405.811 259.193 405.691 259.193C405.57 259.434 409.908 261.97 415.45 267.885C420.993 273.8 427.259 283.096 432.078 294.444C434.729 300.601 436.657 306.154 437.982 310.742C439.549 315.812 440.512 320.52 441.235 324.504C441.958 328.488 442.44 331.748 442.681 333.921C442.922 336.335 443.043 337.542 443.043 337.542Z" fill="#E0E0E0"/>
<path d="M414.246 382.693L417.017 421.083H466.297L469.069 382.693H414.246Z" fill="#EBEBEB"/>
<path d="M474.973 367.602H409.426V382.693H474.973V367.602Z" fill="#EBEBEB"/>
<path d="M409.426 419.634V423.859H412.559H473.888V419.634H409.426Z" fill="#E0E0E0"/>
<path d="M415.571 430.741L412.559 423.376H471.478L467.984 430.741H415.571Z" fill="#E0E0E0"/>
<path d="M468.225 395.248C468.225 395.248 468.105 395.369 467.984 395.61C467.743 395.851 467.502 396.214 467.261 396.576C466.538 397.421 465.574 398.749 464.37 400.197L464.249 400.318L464.129 400.197C462.321 397.662 459.911 394.403 457.02 390.419H457.381C455.333 393.437 452.923 396.697 450.393 400.318L450.152 400.68L449.911 400.439C447.38 397.421 444.609 394.041 441.717 390.66H442.199C442.079 390.781 441.958 391.023 441.717 391.264C439.187 394.524 436.657 397.542 434.367 400.56L434.127 400.922L433.886 400.56C431.355 397.059 429.066 393.678 426.897 390.66H427.259C423.885 394.524 420.993 397.904 418.704 400.439L418.583 400.56L418.463 400.318C417.378 398.387 416.414 396.938 415.812 395.851C415.571 395.369 415.33 395.006 415.089 394.644C414.969 394.403 414.848 394.282 414.848 394.161C414.848 394.161 414.969 394.282 415.089 394.523C415.33 394.886 415.571 395.248 415.812 395.731C416.535 396.817 417.499 398.266 418.583 400.197H418.342C420.511 397.662 423.403 394.282 426.777 390.298L427.018 390.057L427.259 390.298C429.427 393.316 431.717 396.576 434.247 400.077H433.765C436.054 397.179 438.585 394.041 441.115 390.781C441.235 390.54 441.476 390.419 441.597 390.177L441.838 389.936L442.079 390.177C444.971 393.678 447.742 396.938 450.272 399.956H449.79C452.321 396.455 454.73 393.075 456.779 390.177L457.02 389.936L457.261 390.177C460.032 394.161 462.442 397.542 464.129 400.077H463.888C465.093 398.507 466.177 397.421 466.9 396.455C467.261 396.093 467.502 395.731 467.743 395.489C468.105 395.369 468.105 395.248 468.225 395.248Z" fill="#F5F5F5"/>
<path d="M442.199 382.813C457.438 382.813 469.792 382.651 469.792 382.451C469.792 382.251 457.438 382.089 442.199 382.089C426.961 382.089 414.607 382.251 414.607 382.451C414.607 382.651 426.961 382.813 442.199 382.813Z" fill="#F5F5F5"/>
<path d="M190.857 21.0057C190.857 21.0057 190.736 21.0057 190.616 20.885C190.375 20.7643 190.134 20.7643 189.893 20.6436C189.17 20.4021 188.326 20.0399 187.242 19.557C184.832 18.5913 181.458 17.1426 177.362 15.3317C169.048 11.71 157.481 6.63966 144.829 1.08639C144.468 0.965668 144.106 0.724222 143.745 0.603498H143.986C131.455 5.91532 120.249 10.7442 112.056 14.2452C107.959 15.9353 104.706 17.384 102.417 18.3498C101.332 18.8327 100.489 19.1949 99.766 19.4363C99.1635 19.6778 98.8021 19.7985 98.8021 19.7985C98.8021 19.7985 99.043 19.6778 99.6455 19.3156C100.248 19.0742 101.091 18.5913 102.176 18.1084C104.465 17.1426 107.718 15.6939 111.695 13.8831C119.888 10.3821 131.093 5.43243 143.504 0.120605H143.624H143.745C144.106 0.241329 144.468 0.482775 144.829 0.603498C157.481 6.15677 168.927 11.2271 177.241 14.9696C181.338 16.7804 184.712 18.3498 187.001 19.4363C188.085 19.9192 189.049 20.4021 189.652 20.6436C189.893 20.7643 190.134 20.885 190.375 21.0057C190.857 21.0057 190.857 21.0057 190.857 21.0057Z" fill="#E0E0E0"/>
<path d="M241.583 16.2976H32.6529V173.117H241.583V16.2976Z" fill="#E0E0E0"/>
<path d="M235.077 23.6616H40.0028V166.719H235.077V23.6616Z" fill="#FAFAFA"/>
<path d="M83.1383 86.0754C83.1383 86.0754 83.3793 110.099 84.5842 117.463L114.586 116.015C114.586 116.015 111.935 92.353 113.02 86.0754H83.1383Z" fill="#E0E0E0"/>
<path d="M97.9586 89.4558C98.1996 89.4558 98.3201 89.4558 98.4406 89.4558C98.6815 89.4558 99.1635 89.4558 99.6455 89.5765C100.127 89.6972 100.85 89.818 101.573 90.1801C102.296 90.5423 103.019 91.0252 103.622 91.8703C104.224 92.5946 104.827 93.5604 105.068 94.7676C105.309 95.9749 105.188 97.1821 104.706 98.51C104.465 99.1137 104.224 99.7173 103.863 100.321C103.501 100.925 103.14 101.528 102.899 102.252C102.296 103.58 101.935 105.029 101.694 106.478V106.599H101.573C100.609 106.599 99.6455 106.599 98.5611 106.599C97.4767 106.599 96.3922 106.599 95.4283 106.599H95.3078V106.478C95.3078 104.908 94.5849 103.58 93.8619 102.373C93.5005 101.77 93.139 101.166 92.7775 100.562C92.4161 99.9587 92.0546 99.4758 91.6931 98.8722C91.0907 97.665 90.9702 96.337 91.2112 95.2505C91.4521 94.164 91.8136 93.0775 92.4161 92.2324C93.0185 91.3874 93.7415 90.9045 94.3439 90.4216C95.0668 90.0594 95.6693 89.818 96.1513 89.6973C96.6332 89.5765 97.1152 89.5765 97.3562 89.4558C97.5971 89.4558 97.7176 89.4558 97.9586 89.4558C97.9586 89.4558 97.8381 89.4558 97.9586 89.4558C97.9586 89.4558 97.8381 89.4558 97.9586 89.4558C97.7176 89.4558 97.7176 89.4558 97.4767 89.4558C97.2357 89.4558 96.7537 89.5765 96.2717 89.6973C95.7898 89.818 95.0668 90.0594 94.4644 90.4216C93.8619 90.7838 93.139 91.3874 92.5366 92.1117C92.0546 92.9568 91.5726 93.9226 91.4521 95.0091C91.2112 96.0956 91.3316 97.4235 91.9341 98.51C92.1751 99.1137 92.657 99.5966 93.0185 100.2C93.38 100.804 93.7414 101.407 94.1029 102.011C94.8259 103.218 95.5488 104.667 95.5488 106.236L95.4283 106.116C96.3922 106.116 97.4767 106.116 98.5611 106.116C99.525 106.116 100.609 106.116 101.573 106.116L101.453 106.236C101.694 104.667 102.055 103.218 102.658 101.89C102.899 101.166 103.26 100.562 103.622 99.9587C103.983 99.3551 104.224 98.7515 104.465 98.1479C104.947 96.9406 105.068 95.6127 104.827 94.5262C104.586 93.4397 103.983 92.4739 103.501 91.6288C102.899 90.9045 102.176 90.3009 101.453 89.9387C100.73 89.5765 100.127 89.4558 99.525 89.3351C99.043 89.2144 98.5611 89.2144 98.3201 89.2144C98.1996 89.5765 98.0791 89.5765 97.9586 89.4558Z" fill="white"/>
<path d="M99.4045 106.236C99.4045 106.116 99.4045 105.995 99.284 105.874C99.284 105.633 99.1635 105.271 99.1635 104.788C99.043 103.822 98.802 102.494 98.6815 100.804C98.6815 100.442 98.5611 99.9587 98.5611 99.4758C98.5611 98.9929 98.5611 98.51 98.5611 98.0271C98.5611 97.5442 98.6815 97.0613 98.9225 96.5784C99.1635 96.0955 99.525 95.6127 100.127 95.3712C100.609 95.1298 101.332 95.2505 101.814 95.7334C102.055 95.9748 102.176 96.2163 102.176 96.5784C102.176 96.9406 102.055 97.1821 101.814 97.4235C101.573 97.6649 101.332 97.9064 101.091 98.0271C100.85 98.1478 100.489 98.2686 100.248 98.2686C99.6455 98.3893 99.043 98.51 98.3201 98.51C97.7176 98.51 96.9947 98.51 96.3922 98.3893C96.0308 98.3893 95.7898 98.2686 95.4283 98.1478C95.1873 98.0271 94.8258 97.7857 94.7054 97.665C94.4644 97.4235 94.3439 97.1821 94.2234 96.8199C94.1029 96.5784 94.2234 96.2163 94.3439 95.9748C94.4644 95.7334 94.7054 95.4919 94.9463 95.3712C95.1873 95.2505 95.5488 95.2505 95.7898 95.3712C96.0308 95.4919 96.2717 95.7334 96.3922 95.9748C96.5127 96.2163 96.6332 96.4577 96.7537 96.6992C96.8742 97.1821 96.8742 97.7857 96.8742 98.2686C96.8742 99.2344 96.9947 100.2 96.9947 101.045C97.1152 102.735 97.1152 104.063 97.2357 105.029C97.2357 105.512 97.2357 105.874 97.2357 106.116C97.2357 106.236 97.2357 106.357 97.2357 106.357C97.2357 106.478 97.2357 106.478 97.2357 106.478C97.2357 106.478 97.2357 106.478 97.2357 106.357C97.2357 106.236 97.2357 106.236 97.2357 106.116C97.2357 105.874 97.2357 105.512 97.1152 105.029C97.1152 104.063 96.9947 102.735 96.8742 101.045C96.8742 100.2 96.7537 99.2344 96.7537 98.2686C96.7537 97.7857 96.7537 97.3028 96.6332 96.6992C96.5127 96.4577 96.5127 96.2163 96.2717 95.9748C96.1512 95.7334 95.9103 95.6127 95.6693 95.4919C95.4283 95.3712 95.1873 95.3712 94.8258 95.4919C94.5849 95.6127 94.3439 95.8541 94.2234 96.0955C94.1029 96.337 94.1029 96.6992 94.1029 96.9406C94.2234 97.1821 94.3439 97.5442 94.4644 97.665C94.8259 98.1478 95.4283 98.3893 96.0307 98.3893C96.6332 98.51 97.2357 98.51 97.9586 98.51C98.5611 98.51 99.284 98.3893 99.8864 98.2686C100.248 98.1478 100.489 98.1478 100.73 98.0271C100.971 97.9064 101.212 97.6649 101.453 97.4235C101.573 97.1821 101.694 96.9406 101.694 96.5784C101.694 96.337 101.573 95.9748 101.332 95.8541C100.971 95.4919 100.248 95.3712 99.766 95.6127C99.284 95.8541 98.9225 96.2163 98.6815 96.6992C98.4406 97.1821 98.3201 97.665 98.3201 98.1478C98.3201 98.6307 98.3201 99.1136 98.3201 99.5965C98.3201 100.079 98.3201 100.442 98.4406 100.924C98.561 102.615 98.802 103.943 98.9225 104.908C99.043 105.391 99.043 105.753 99.043 105.995C99.4045 105.995 99.4045 106.116 99.4045 106.236Z" fill="white"/>
<path d="M95.4283 106.357C95.4283 106.357 95.4283 106.719 95.5488 107.323C95.5488 108.047 95.6693 108.892 95.6693 109.979V109.858C96.2718 110.582 96.9947 111.307 97.7176 112.152L97.5971 112.273C98.3201 112.273 99.1635 112.152 99.8865 112.152H99.766C100.127 111.669 100.489 111.186 100.971 110.703C101.212 110.462 101.332 110.22 101.573 109.979V110.1C101.573 108.772 101.453 107.444 101.453 106.236L101.573 106.357C99.8865 106.357 98.4406 106.357 97.2357 106.357C96.7537 106.357 96.3922 106.357 96.0308 106.357C95.6693 106.357 95.5488 106.357 95.4283 106.357C95.4283 106.357 95.5488 106.357 95.7898 106.357C96.1513 106.357 96.5127 106.357 96.9947 106.236C98.1996 106.236 99.766 106.116 101.453 106.116H101.573V106.236C101.573 107.444 101.694 108.772 101.694 110.1C101.453 110.341 101.332 110.582 101.091 110.824C100.73 111.307 100.248 111.79 99.8865 112.273C99.043 112.273 98.3201 112.393 97.5971 112.393H97.4767C96.7537 111.548 96.0308 110.703 95.5488 109.979C95.5488 108.892 95.5488 108.047 95.5488 107.323C95.4283 106.719 95.4283 106.357 95.4283 106.357Z" fill="white"/>
<path d="M101.573 109.737C101.573 109.737 101.453 109.737 101.332 109.617C101.212 109.496 100.971 109.496 100.73 109.375C100.248 109.255 99.4045 109.013 98.561 109.013C97.7176 109.013 96.9947 109.255 96.5127 109.496C96.2717 109.617 96.0307 109.737 95.9103 109.737C95.7898 109.858 95.6693 109.858 95.6693 109.858C95.6693 109.858 95.7898 109.858 95.9103 109.737C96.0307 109.617 96.2717 109.496 96.5127 109.375C96.9947 109.134 97.7176 108.892 98.6815 108.892C99.525 108.892 100.248 109.013 100.85 109.255C101.091 109.375 101.332 109.496 101.453 109.496C101.453 109.737 101.573 109.737 101.573 109.737Z" fill="white"/>
<path d="M101.573 108.892C101.573 108.892 101.453 108.892 101.332 108.771C101.212 108.651 100.971 108.651 100.73 108.53C100.248 108.409 99.4045 108.168 98.561 108.168C97.7176 108.168 96.9947 108.409 96.5127 108.651C96.2717 108.771 96.0307 108.892 95.9103 108.892C95.7898 109.013 95.6693 109.013 95.6693 109.013C95.6693 109.013 95.7898 109.013 95.9103 108.892C96.0307 108.771 96.2717 108.651 96.5127 108.53C96.9947 108.289 97.7176 108.047 98.6815 108.047C99.525 108.047 100.248 108.168 100.85 108.409C101.091 108.53 101.332 108.651 101.453 108.651C101.453 108.771 101.573 108.892 101.573 108.892Z" fill="white"/>
<path d="M101.453 107.926C101.453 107.926 101.332 107.926 101.212 107.806C101.091 107.685 100.85 107.685 100.609 107.564C100.127 107.443 99.284 107.202 98.4406 107.202C97.5971 107.202 96.8742 107.443 96.3922 107.685C96.1512 107.806 95.9103 107.926 95.7898 107.926C95.6693 108.047 95.5488 108.047 95.5488 108.047C95.5488 108.047 95.6693 108.047 95.7898 107.926C95.9103 107.806 96.1512 107.685 96.3922 107.564C96.8742 107.323 97.5971 107.081 98.561 107.081C99.4045 107.081 100.127 107.202 100.73 107.443C100.971 107.564 101.212 107.685 101.332 107.685C101.453 107.926 101.453 107.926 101.453 107.926Z" fill="white"/>
<path d="M49.642 46.8406C49.642 46.8406 49.883 70.8645 51.0879 78.2286L81.09 76.7799C81.09 76.7799 78.4392 53.1182 79.5236 46.8406H49.642Z" fill="#EBEBEB"/>
<path d="M64.8405 57.8285C70.4202 57.4923 74.937 57.1118 74.929 56.9787C74.921 56.8456 70.3913 57.0102 64.8116 57.3465C59.2319 57.6827 54.7151 58.0632 54.7231 58.1963C54.7311 58.3294 59.2608 58.1648 64.8405 57.8285Z" fill="white"/>
<path d="M64.8396 62.8993C70.4193 62.5631 74.9361 62.1826 74.9281 62.0495C74.9201 61.9164 70.3904 62.081 64.8107 62.4173C59.231 62.7535 54.7142 63.134 54.7222 63.2671C54.7302 63.4002 59.2599 63.2356 64.8396 62.8993Z" fill="white"/>
<path d="M64.1152 67.6046C67.3036 67.4124 69.8818 67.1487 69.8739 67.0156C69.8659 66.8825 67.2747 66.9304 64.0863 67.1225C60.8979 67.3147 58.3196 67.5784 58.3276 67.7115C58.3356 67.8446 60.9268 67.7967 64.1152 67.6046Z" fill="white"/>
<path d="M48.1962 117.464C48.1962 117.464 48.4371 141.488 49.6421 148.852L79.6441 147.403C79.6441 147.403 76.9934 123.741 78.0778 117.464H48.1962Z" fill="#EBEBEB"/>
<path d="M63.3936 128.453C68.9733 128.117 73.4901 127.737 73.4821 127.603C73.4741 127.47 68.9444 127.635 63.3647 127.971C57.785 128.307 53.2682 128.688 53.2762 128.821C53.2842 128.954 57.8139 128.79 63.3936 128.453Z" fill="white"/>
<path d="M63.5131 133.517C69.0928 133.181 73.6096 132.8 73.6016 132.667C73.5936 132.534 69.0638 132.698 63.4841 133.035C57.9044 133.371 53.3876 133.751 53.3956 133.885C53.4036 134.018 57.9334 133.853 63.5131 133.517Z" fill="white"/>
<path d="M62.6684 138.23C65.8568 138.037 68.435 137.774 68.4271 137.641C68.4191 137.507 65.8279 137.555 62.6395 137.747C59.451 137.94 56.8728 138.203 56.8808 138.336C56.8888 138.47 59.48 138.422 62.6684 138.23Z" fill="white"/>
<path d="M130.371 53.2388L133.262 122.534L219.654 123.5L215.678 54.0838L130.371 53.2388Z" fill="#EBEBEB"/>
<path d="M214.955 52.7559H129.286V117.584H214.955V52.7559Z" fill="#F5F5F5"/>
<path d="M215.075 117.584C215.075 117.584 215.075 117.222 215.075 116.377C215.075 115.532 215.075 114.445 215.075 112.876C215.075 109.858 215.075 105.391 214.955 99.7172C214.955 88.3692 214.834 72.1923 214.834 52.6351L215.075 52.8766C190.857 52.8766 161.216 52.8766 129.407 52.8766L129.648 52.6351C129.648 75.9347 129.648 98.0271 129.648 117.464L129.407 117.222C154.71 117.222 176.157 117.343 191.218 117.343C198.809 117.343 204.713 117.343 208.81 117.464C210.858 117.464 212.424 117.464 213.509 117.464C213.991 117.464 214.473 117.464 214.714 117.464C214.955 117.584 215.075 117.584 215.075 117.584C215.075 117.584 214.955 117.584 214.714 117.584C214.473 117.584 213.991 117.584 213.509 117.584C212.424 117.584 210.858 117.584 208.93 117.584C204.834 117.584 198.929 117.584 191.459 117.705C176.398 117.705 154.951 117.826 129.407 117.826H129.166V117.584C129.166 98.1478 129.166 76.0554 129.166 52.7559V52.5144H129.407C161.337 52.5144 190.857 52.5144 215.075 52.5144H215.316V52.7559C215.316 72.4337 215.196 88.6107 215.196 99.9586C215.196 105.633 215.196 109.979 215.075 112.997C215.075 114.445 215.075 115.653 215.075 116.377C215.075 117.222 215.075 117.584 215.075 117.584Z" fill="#E0E0E0"/>
<path d="M174.349 66.5183H139.648V110.341H174.349V66.5183Z" fill="#F5F5F5"/>
<path d="M174.47 110.22C174.47 110.22 174.47 110.099 174.47 109.979C174.47 109.858 174.47 109.616 174.47 109.375C174.47 108.771 174.47 108.047 174.47 106.961C174.47 104.788 174.47 101.769 174.349 98.0271C174.349 90.3008 174.229 79.4357 174.229 66.3976L174.47 66.639C164.108 66.639 152.3 66.639 139.769 66.639C139.648 66.7597 140.371 66.0354 140.01 66.3976V66.5183V66.7597V67.1219V67.8462V69.4157C140.01 70.3814 140.01 71.4679 140.01 72.4337C140.01 74.3653 140.01 76.4176 140.01 78.3492C140.01 82.2123 140.01 86.0755 140.01 89.6972C140.01 97.0613 140.01 103.943 140.01 110.22L139.769 109.979C150.251 109.979 158.806 110.099 164.951 110.099C167.964 110.099 170.373 110.099 172.06 110.22C172.904 110.22 173.506 110.22 173.988 110.22C174.229 110.22 174.47 110.22 174.47 110.22C174.47 110.22 174.229 110.22 173.868 110.22C173.386 110.22 172.783 110.22 172.06 110.22C170.373 110.22 168.084 110.22 165.072 110.341C158.927 110.341 150.251 110.462 139.769 110.462H139.528V110.22C139.528 103.943 139.528 97.0613 139.528 89.6972C139.528 86.0755 139.528 82.2123 139.528 78.3492C139.528 76.4176 139.528 74.486 139.528 72.4337C139.528 71.4679 139.528 70.3814 139.528 69.4157V67.8462V67.1219V66.7597V66.5183V66.3976C139.287 66.639 139.889 66.0354 139.769 66.0354C152.3 66.0354 164.108 66.0354 174.47 66.0354H174.711V66.2768C174.711 79.315 174.59 90.3008 174.59 98.0271C174.59 101.89 174.59 104.908 174.47 106.961C174.47 107.926 174.47 108.771 174.47 109.254C174.47 109.496 174.47 109.737 174.47 109.858C174.47 110.22 174.47 110.341 174.47 110.22Z" fill="#E0E0E0"/>
<path d="M207.605 56.4983H140.974V62.7759H207.605V56.4983Z" fill="#F5F5F5"/>
<path d="M207.605 62.7759C207.605 62.7759 207.605 62.6552 207.605 62.293C207.605 61.9308 207.605 61.5687 207.605 61.0858C207.605 59.9993 207.605 58.4299 207.484 56.3776L207.605 56.4983C196.399 56.619 170.735 56.7397 140.974 56.7397C141.576 56.1361 141.094 56.619 141.215 56.4983V56.619V56.8605V57.2226V58.0677C141.215 58.5506 141.215 59.1542 141.215 59.6371C141.215 60.7236 141.215 61.6894 141.215 62.7759L140.974 62.5345C159.65 62.5345 176.157 62.6552 188.206 62.6552C194.23 62.6552 199.05 62.7759 202.424 62.7759C204.111 62.7759 205.315 62.7759 206.279 62.7759C206.641 62.7759 207.002 62.7759 207.243 62.7759C207.484 62.7759 207.605 62.7759 207.605 62.7759C207.605 62.7759 207.484 62.7759 207.243 62.7759C207.002 62.7759 206.641 62.7759 206.279 62.7759C205.436 62.7759 204.111 62.7759 202.544 62.7759C199.17 62.7759 194.351 62.7759 188.447 62.8966C176.398 62.8966 159.77 63.0173 141.094 63.0173H140.853V62.7759C140.853 61.8101 140.853 60.7236 140.853 59.6371C140.853 59.1542 140.853 58.5506 140.853 58.0677V57.2226V56.8605V56.619V56.4983C140.974 56.3776 140.612 56.7397 141.094 56.2568C170.855 56.2568 196.399 56.3776 207.725 56.3776H207.846V56.4983C207.846 58.5506 207.846 60.12 207.725 61.2065C207.725 61.6894 207.725 62.0516 207.725 62.4137C207.605 62.6552 207.605 62.7759 207.605 62.7759Z" fill="#E0E0E0"/>
<path d="M207.605 66.5183H178.687V92.9567H207.605V66.5183Z" fill="#F5F5F5"/>
<path d="M207.605 92.836C207.605 92.836 207.605 92.5946 207.605 92.3531C207.605 91.9909 207.605 91.5081 207.605 90.9044C207.605 89.5765 207.605 87.7656 207.484 85.4719C207.484 80.8844 207.364 74.2446 207.364 66.3976L207.605 66.6391C199.291 66.6391 189.29 66.6391 178.687 66.6391C178.567 66.7598 179.29 66.0354 178.928 66.3976V66.5183V66.7598V67.2427V68.0877C178.928 68.6914 178.928 69.295 178.928 69.8986C178.928 71.1058 178.928 72.3131 178.928 73.3996C178.928 75.6933 178.928 77.987 178.928 80.1601C178.928 84.6268 178.928 88.7314 178.928 92.7153L178.687 92.4738C187.242 92.4738 194.471 92.5946 199.532 92.5946C202.062 92.5946 203.99 92.5946 205.436 92.7153C206.038 92.7153 206.641 92.7153 207.002 92.7153C207.364 92.836 207.605 92.836 207.605 92.836C207.605 92.836 207.484 92.836 207.123 92.836C206.761 92.836 206.279 92.836 205.556 92.836C204.111 92.836 202.183 92.836 199.652 92.9567C194.471 92.9567 187.242 93.0775 178.567 93.0775H178.326V92.836C178.326 88.9729 178.326 84.7475 178.326 80.2808C178.326 78.1078 178.326 75.814 178.326 73.5203C178.326 72.3131 178.326 71.2265 178.326 70.0193C178.326 69.4157 178.326 68.8121 178.326 68.2085V67.3634V66.8805V66.6391V66.5183C178.085 66.7598 178.687 66.1562 178.567 66.2769C189.17 66.2769 199.17 66.2769 207.484 66.2769H207.725V66.5183C207.725 74.4861 207.605 81.1259 207.605 85.7133C207.605 88.0071 207.605 89.8179 207.484 91.0252C207.484 91.6288 207.484 92.1117 207.484 92.3531C207.605 92.7153 207.605 92.836 207.605 92.836Z" fill="#E0E0E0"/>
<path d="M207.605 97.0613H178.687V110.341H207.605V97.0613Z" fill="#F5F5F5"/>
<path d="M207.605 110.22C207.605 110.22 207.605 109.858 207.605 109.254C207.605 108.53 207.605 107.685 207.605 106.599C207.605 104.305 207.484 100.925 207.484 96.9407L207.725 97.1821C200.134 97.1821 190.013 97.1821 178.808 97.3028C178.567 97.5443 179.169 96.9407 179.049 97.0614V97.1821V97.4235V97.9064V98.7515C179.049 99.3551 179.049 99.9587 179.049 100.442C179.049 101.528 179.049 102.735 179.049 103.822C179.049 105.995 179.049 108.168 179.049 110.22L178.808 109.979C187.121 109.979 194.351 110.099 199.532 110.099C202.062 110.099 204.111 110.099 205.556 110.22C206.279 110.22 206.761 110.22 207.243 110.22C207.364 110.22 207.605 110.22 207.605 110.22C207.605 110.22 207.484 110.22 207.123 110.22C206.761 110.22 206.159 110.22 205.556 110.22C204.111 110.22 202.062 110.22 199.652 110.341C194.471 110.341 187.242 110.462 178.808 110.462H178.567V110.22C178.567 108.168 178.567 105.995 178.567 103.822C178.567 102.735 178.567 101.528 178.567 100.442C178.567 99.838 178.567 99.3551 178.567 98.7515V97.9064V97.4235V97.1821V97.0614C178.446 97.1821 179.169 96.4578 178.808 96.8199C190.013 96.8199 200.134 96.8199 207.725 96.9407H207.966V97.1821C207.966 101.287 207.846 104.546 207.846 106.961C207.846 108.047 207.846 108.892 207.846 109.617C207.605 109.979 207.605 110.341 207.605 110.22Z" fill="#E0E0E0"/>
<path d="M173.506 66.5168C162.782 81.3658 150.372 95.3697 139.648 110.219L173.506 66.5168Z" fill="white"/>
<path d="M139.648 110.22C139.648 110.22 139.769 110.099 139.889 109.737C140.13 109.375 140.492 108.892 140.853 108.409C141.697 107.202 142.781 105.633 144.347 103.58C147.36 99.5965 151.577 94.1639 156.396 88.1278C161.216 82.2123 165.554 76.7798 168.566 72.7959C170.012 70.8643 171.337 69.2949 172.181 68.0877C172.542 67.6048 172.904 67.1219 173.145 66.7598C173.386 66.5183 173.506 66.2769 173.506 66.3976C173.506 66.3976 173.386 66.5183 173.265 66.8805C173.024 67.2427 172.663 67.7255 172.301 68.2084C171.458 69.4157 170.373 70.9851 168.807 73.0374C165.795 77.0212 161.577 82.4538 156.758 88.4899C151.938 94.4054 147.601 99.8379 144.588 103.822C143.142 105.753 141.817 107.323 140.974 108.53C140.612 109.013 140.251 109.496 140.01 109.858C139.769 110.099 139.648 110.341 139.648 110.22Z" fill="#E0E0E0"/>
<path d="M156.833 88.4733C166.438 100.583 174.308 110.333 174.412 110.25C174.516 110.167 166.815 100.283 157.211 88.1729C147.607 76.0628 139.736 66.3129 139.632 66.3958C139.528 66.4788 147.229 76.3632 156.833 88.4733Z" fill="#E0E0E0"/>
<path d="M127.84 71.951C130.835 71.951 133.262 69.5188 133.262 66.5185C133.262 63.5182 130.835 61.0859 127.84 61.0859C124.846 61.0859 122.418 63.5182 122.418 66.5185C122.418 69.5188 124.846 71.951 127.84 71.951Z" fill="#E0E0E0"/>
<path d="M216.762 58.7921C219.757 58.7921 222.184 56.3599 222.184 53.3595C222.184 50.3592 219.757 47.927 216.762 47.927C213.768 47.927 211.34 50.3592 211.34 53.3595C211.34 56.3599 213.768 58.7921 216.762 58.7921Z" fill="#E0E0E0"/>
<path d="M439.308 104.426H386.533V181.085H439.308V104.426Z" fill="#E0E0E0"/>
<path d="M436.656 104.425H383.881V181.084H436.656V104.425Z" fill="#F5F5F5"/>
<path d="M430.03 112.755H390.389V172.755H430.03V112.755Z" fill="white"/>
<path d="M430.15 172.755C430.15 172.755 430.15 172.634 430.15 172.513C430.15 172.272 430.15 172.03 430.15 171.668C430.15 170.944 430.15 169.857 430.15 168.409C430.15 165.511 430.15 161.286 430.15 156.095C430.15 145.471 430.15 130.502 430.03 112.876L430.15 112.997C417.981 112.997 404.606 112.997 390.509 112.997L390.63 112.876C390.63 135.572 390.63 156.457 390.63 172.876L390.389 172.634C402.438 172.634 412.318 172.634 419.306 172.634C422.8 172.634 425.451 172.634 427.259 172.634C428.223 172.634 428.825 172.634 429.307 172.634C429.789 172.755 430.15 172.755 430.15 172.755C430.15 172.755 429.909 172.755 429.427 172.755C428.945 172.755 428.223 172.755 427.379 172.755C425.572 172.755 422.921 172.755 419.427 172.755C412.559 172.755 402.558 172.755 390.509 172.755H390.389V172.634C390.389 156.095 390.389 135.21 390.389 112.635V112.514H390.509C404.606 112.514 418.101 112.514 430.15 112.514H430.271V112.635C430.271 130.381 430.271 145.351 430.15 155.974C430.15 161.286 430.15 165.391 430.15 168.288C430.15 169.737 430.15 170.823 430.15 171.548C430.15 171.91 430.15 172.151 430.15 172.393C430.15 172.634 430.15 172.755 430.15 172.755Z" fill="#E0E0E0"/>
<path d="M436.777 104.426C436.777 104.426 436.416 105.029 435.813 105.753C435.211 106.599 434.368 107.685 433.283 108.892C432.319 110.1 431.355 111.186 430.632 111.91C429.909 112.635 429.548 113.118 429.427 113.118C429.427 113.118 429.789 112.635 430.391 111.79C431.114 110.945 431.958 109.858 432.922 108.651C433.886 107.444 434.729 106.478 435.452 105.512C436.416 104.908 436.777 104.426 436.777 104.426Z" fill="#E0E0E0"/>
<path d="M430.271 172.513C432.199 175.652 434.608 178.55 437.139 181.206L430.271 172.513Z" fill="white"/>
<path d="M437.259 181.206C437.259 181.206 436.777 180.843 436.054 180.119C435.331 179.395 434.368 178.429 433.404 177.222C432.44 176.014 431.596 174.928 431.114 173.962C430.632 173.117 430.271 172.513 430.271 172.513C430.271 172.513 430.632 172.996 431.235 173.841C431.837 174.686 432.681 175.773 433.645 176.98C434.608 178.187 435.452 179.274 436.175 179.998C436.777 180.723 437.259 181.206 437.259 181.206Z" fill="#E0E0E0"/>
<path d="M383.882 180.964C386.171 178.066 388.46 175.29 390.75 172.392L383.882 180.964Z" fill="white"/>
<path d="M387.481 176.764C389.408 174.381 390.929 172.416 390.877 172.374C390.826 172.332 389.221 174.229 387.294 176.612C385.366 178.995 383.845 180.961 383.897 181.003C383.949 181.045 385.553 179.147 387.481 176.764Z" fill="#E0E0E0"/>
<path d="M387.212 108.421C385.437 106.172 383.956 104.383 383.904 104.424C383.852 104.466 385.248 106.322 387.023 108.571C388.798 110.819 390.279 112.609 390.332 112.567C390.384 112.526 388.987 110.67 387.212 108.421Z" fill="#E0E0E0"/>
<path d="M417.74 124.948H404.486V162.735H417.74V124.948Z" fill="#E0E0E0"/>
<path d="M425.713 18.4491L417.761 18.4917L417.973 58.0889L425.925 58.0463L425.713 18.4491Z" fill="#E0E0E0"/>
<path d="M369.49 18.5366L349.006 18.6462L349.123 40.4971L369.607 40.3875L369.49 18.5366Z" fill="#EBEBEB"/>
<path d="M389.974 18.4152L369.491 18.5251L369.608 40.3761L390.091 40.2661L389.974 18.4152Z" fill="#F5F5F5"/>
<path d="M349.06 24.6277C362.676 24.7484 376.412 24.6277 390.027 24.3862C390.268 24.3862 390.268 23.9033 390.027 23.9033C376.412 23.7826 362.676 23.9033 349.06 24.1448C348.819 24.2655 348.819 24.6277 349.06 24.6277Z" fill="#E0E0E0"/>
<path d="M373.598 39.9786L336.246 40.179L336.341 57.9253L373.693 57.7249L373.598 39.9786Z" fill="#EBEBEB"/>
<path d="M410.709 39.7372L373.357 39.9375L373.452 57.6838L410.804 57.4835L410.709 39.7372Z" fill="#F5F5F5"/>
<path d="M336.168 45.1506C360.989 45.392 385.81 45.1506 410.631 44.7884C410.872 44.7884 410.872 44.3055 410.631 44.3055C385.81 44.1848 360.989 44.1848 336.168 44.7884C335.927 44.7884 335.927 45.1506 336.168 45.1506Z" fill="#E0E0E0"/>
<path d="M466.9 57.947H322.312V64.3453H466.9V57.947Z" fill="#E0E0E0"/>
<path d="M351.832 60.9651H345.928V82.6953H351.832V60.9651Z" fill="#E0E0E0"/>
<path d="M439.428 60.9651H433.524V82.6953H439.428V60.9651Z" fill="#E0E0E0"/>
<path d="M433.384 3.60043L425.432 3.64307L425.723 57.9685L433.675 57.9259L433.384 3.60043Z" fill="#EBEBEB"/>
<path d="M445.702 13.7296L433.412 13.7957L433.647 57.8596L445.938 57.7936L445.702 13.7296Z" fill="#F5F5F5"/>
<path d="M439.549 22.4546C442.942 22.4546 445.694 22.3465 445.694 22.2131C445.694 22.0798 442.942 21.9717 439.549 21.9717C436.155 21.9717 433.404 22.0798 433.404 22.2131C433.404 22.3465 436.155 22.4546 439.549 22.4546Z" fill="#E0E0E0"/>
<path d="M439.549 20.6435C442.942 20.6435 445.694 20.5354 445.694 20.4021C445.694 20.2687 442.942 20.1606 439.549 20.1606C436.155 20.1606 433.404 20.2687 433.404 20.4021C433.404 20.5354 436.155 20.6435 439.549 20.6435Z" fill="#E0E0E0"/>
<path d="M439.549 51.428C442.942 51.428 445.694 51.3199 445.694 51.1865C445.694 51.0532 442.942 50.9451 439.549 50.9451C436.155 50.9451 433.404 51.0532 433.404 51.1865C433.404 51.3199 436.155 51.428 439.549 51.428Z" fill="#E0E0E0"/>
<path d="M439.549 49.6172C442.942 49.6172 445.694 49.5091 445.694 49.3757C445.694 49.2424 442.942 49.1343 439.549 49.1343C436.155 49.1343 433.404 49.2424 433.404 49.3757C433.404 49.5091 436.155 49.6172 439.549 49.6172Z" fill="#E0E0E0"/>
<path d="M439.669 45.2713C439.802 45.2713 439.91 40.8392 439.91 35.372C439.91 29.9047 439.802 25.4727 439.669 25.4727C439.536 25.4727 439.428 29.9047 439.428 35.372C439.428 40.8392 439.536 45.2713 439.669 45.2713Z" fill="#E0E0E0"/>
<path d="M459.189 24.6274H445.814V57.9471H459.189V24.6274Z" fill="#EBEBEB"/>
<path d="M452.923 49.2549C451.116 49.2549 449.911 48.0477 449.911 46.2369C449.911 45.2711 450.272 44.426 450.995 43.9431L451.357 44.3053C450.754 44.7882 450.513 45.3918 450.513 46.1161C450.513 47.5648 451.477 48.5306 453.043 48.5306C454.489 48.5306 455.574 47.5648 455.574 46.1161C455.574 45.3918 455.333 44.6675 454.73 44.3053L455.092 43.9431C455.815 44.426 456.176 45.2711 456.176 46.2369C455.935 47.927 454.61 49.2549 452.923 49.2549Z" fill="#FAFAFA"/>
<path d="M455.092 43.2189L454.61 42.9775C454.971 42.4946 455.333 41.7703 455.333 40.8045C455.333 39.5973 454.851 39.1144 454.248 39.1144C452.562 39.1144 453.766 42.9775 451.477 42.9775C450.634 42.9775 449.911 42.2532 449.911 40.6838C449.911 39.9594 450.152 39.1144 450.513 38.6315L450.995 38.8729C450.634 39.3558 450.513 39.9594 450.513 40.6838C450.513 41.891 450.995 42.3739 451.598 42.3739C453.405 42.3739 452.08 38.5107 454.369 38.5107C455.333 38.5107 455.935 39.3558 455.935 40.8045C455.935 41.7703 455.574 42.7361 455.092 43.2189Z" fill="#FAFAFA"/>
<path d="M455.092 37.7863L454.61 37.5449C454.971 37.062 455.333 36.3376 455.333 35.3719C455.333 34.1646 454.851 33.6817 454.248 33.6817C452.562 33.6817 453.766 37.5449 451.477 37.5449C450.634 37.5449 449.911 36.8205 449.911 35.2511C449.911 34.5268 450.152 33.6817 450.513 33.1988L450.995 33.4403C450.634 33.9232 450.513 34.5268 450.513 35.2511C450.513 36.4584 450.995 36.9413 451.598 36.9413C453.405 36.9413 452.08 33.0781 454.369 33.0781C455.333 33.0781 455.935 33.9232 455.935 35.3719C455.935 36.3376 455.574 37.3034 455.092 37.7863Z" fill="#FAFAFA"/>
<path d="M429.307 15.211C430.571 15.211 431.596 14.1841 431.596 12.9173C431.596 11.6505 430.571 10.6235 429.307 10.6235C428.043 10.6235 427.018 11.6505 427.018 12.9173C427.018 14.1841 428.043 15.211 429.307 15.211Z" fill="#E0E0E0"/>
<path d="M430.03 19.1951H428.584V51.5489H430.03V19.1951Z" fill="#E0E0E0"/>
<path d="M521 432.793C521 432.913 404.606 433.155 261.102 433.155C117.599 433.155 1.2049 432.913 1.2049 432.793C1.2049 432.672 117.599 432.43 261.102 432.43C404.606 432.43 521 432.551 521 432.793Z" fill="#263238"/>
<path d="M141.938 17.7461C122.659 48.1683 123.864 90.4215 144.95 119.757C159.047 139.314 180.133 152.352 196.881 169.616C213.629 186.879 226.401 212.231 217.485 234.565C208.448 257.382 182.061 266.557 162.3 281.043C140.733 296.737 125.671 321.003 120.972 347.32C116.394 373.638 122.298 401.646 137.118 423.738H342.433C342.433 423.738 378.46 354.805 332.071 302.411C285.682 249.897 260.741 249.052 262.548 214.646C264.235 180.24 288.333 169.012 302.069 156.095C315.805 143.178 382.798 113.117 343.277 17.7461H141.938Z" fill="#FAFAFA"/>
<path d="M141.938 17.7462C141.938 17.7462 143.142 17.7462 145.432 17.7462C147.842 17.7462 151.215 17.7462 155.794 17.7462C164.951 17.7462 178.446 17.7462 195.917 17.7462C230.739 17.7462 281.104 17.6255 343.518 17.6255H343.638V17.7462C346.41 24.8689 349.301 32.233 351.35 40.08C353.398 47.8063 355.085 55.8947 355.687 64.3454C356.29 72.6753 356.049 81.3674 354.362 89.9387C352.675 98.51 349.542 106.961 345.084 114.808C342.795 118.792 340.144 122.413 337.373 126.035C334.481 129.657 331.348 132.916 327.854 136.176C324.48 139.435 320.866 142.453 317.13 145.23C313.395 148.127 309.54 150.904 305.684 153.801C303.756 155.25 302.069 156.819 300.262 158.509C298.454 160.079 296.527 161.648 294.599 163.097C290.864 166.115 287.008 169.133 283.393 172.513C276.043 179.032 269.898 187.242 266.525 196.779C264.838 201.487 263.753 206.557 263.271 211.628C263.151 212.956 263.03 214.163 262.91 215.491C262.91 216.819 262.789 218.026 262.91 219.354C262.91 221.889 263.271 224.424 263.633 226.96C264.597 232.03 266.765 236.859 269.778 241.084C272.79 245.309 276.525 249.052 280.381 252.674C288.213 259.796 296.406 266.677 304.358 274.042C312.311 281.406 320.022 289.132 327.493 297.22C331.228 301.325 334.963 305.43 338.216 309.896C341.59 314.363 344.361 319.192 346.771 324.262C351.591 334.403 354.603 345.51 355.567 356.858C356.651 368.206 355.808 379.795 353.519 391.143C352.434 396.817 350.868 402.491 349.06 407.924C347.253 413.477 345.205 418.909 342.554 424.221L342.433 424.342H342.192C340.506 424.342 338.698 424.342 336.891 424.342C266.766 424.342 199.17 424.342 136.877 424.342H136.756L136.636 424.221C126.876 409.493 121.093 392.592 119.406 375.691C117.719 358.789 120.249 341.767 126.515 326.677C132.66 311.587 142.179 298.307 153.625 287.804C159.409 282.492 165.795 278.267 172.181 274.283C178.567 270.299 185.073 266.557 191.218 262.573C197.363 258.468 203.147 254.243 207.966 248.931C212.786 243.74 216.401 237.583 218.328 230.943C220.256 224.304 220.256 217.422 219.172 210.903C218.087 204.384 215.678 198.227 212.786 192.433C209.894 186.759 206.279 181.447 202.424 176.739C198.568 171.91 194.23 167.684 189.893 163.701C181.217 155.733 172.301 148.731 164.349 141.488C160.373 137.866 156.517 134.244 153.023 130.502C149.528 126.759 146.396 122.896 143.624 118.912C138.082 110.945 134.347 102.615 131.816 94.5262C129.286 86.4377 128.081 78.5907 127.84 71.468C127.72 69.6572 127.72 67.9671 127.72 66.1562C127.72 64.4661 127.72 62.776 127.84 61.0858C127.961 59.3957 128.081 57.8263 128.202 56.2569C128.443 54.6875 128.684 53.2388 128.804 51.7902C130.611 40.08 134.106 31.6294 136.877 26.1968C137.479 24.8689 138.082 23.5409 138.684 22.5751C139.287 21.6094 139.769 20.7643 140.13 20.04C141.576 18.4706 141.938 17.7462 141.938 17.7462C141.817 17.8669 141.576 18.4705 140.733 19.7985C140.371 20.5228 139.889 21.3679 139.287 22.3337C138.684 23.2995 138.082 24.5067 137.479 25.9554C134.829 31.3879 131.334 39.9593 129.527 51.5487C129.286 52.9974 129.045 54.4461 128.925 56.0155C128.804 57.5849 128.684 59.1543 128.563 60.7237C128.443 62.2931 128.443 63.9832 128.443 65.7941C128.443 67.4842 128.322 69.295 128.563 71.1059C128.804 78.2285 130.129 86.0756 132.539 94.164C135.07 102.252 138.805 110.582 144.227 118.429C146.998 122.413 150.131 126.276 153.625 129.898C157.119 133.641 160.855 137.262 164.951 140.763C172.904 148.007 181.82 155.009 190.616 162.976C194.953 166.96 199.291 171.306 203.147 176.135C207.002 180.964 210.617 186.155 213.509 191.95C216.401 197.624 218.81 203.901 219.895 210.541C220.979 217.06 220.979 224.062 219.051 230.823C217.123 237.462 213.388 243.74 208.569 248.931C203.749 254.243 197.845 258.589 191.821 262.694C185.676 266.798 179.169 270.42 172.783 274.404C166.397 278.388 160.011 282.613 154.348 287.925C142.901 298.307 133.503 311.466 127.358 326.556C121.213 341.526 118.562 358.427 120.37 375.328C121.936 392.23 127.72 409.01 137.479 423.618L137.238 423.497C199.532 423.497 267.247 423.497 337.252 423.497C339.06 423.497 340.867 423.497 342.554 423.497L342.313 423.618C344.843 418.427 347.012 412.994 348.819 407.441C350.627 401.888 352.073 396.334 353.157 390.66C355.446 379.312 356.169 367.844 355.205 356.496C354.241 345.148 351.229 334.162 346.41 324.142C344 319.192 341.229 314.242 337.855 309.896C334.602 305.43 330.866 301.325 327.252 297.22C319.781 289.132 312.07 281.406 304.117 274.042C296.165 266.677 287.972 259.917 280.14 252.674C276.284 249.052 272.549 245.309 269.416 241.084C266.284 236.859 264.115 231.909 263.151 226.718C262.669 224.183 262.428 221.527 262.428 218.992C262.307 217.664 262.428 216.457 262.428 215.129C262.428 213.801 262.669 212.593 262.789 211.266C263.151 206.074 264.356 201.125 266.043 196.296C269.416 186.638 275.682 178.429 283.032 171.789C286.646 168.409 290.502 165.391 294.358 162.373C296.286 160.803 298.093 159.355 299.9 157.785C301.708 156.216 303.515 154.526 305.443 153.077C309.299 150.18 313.154 147.403 316.889 144.506C320.625 141.608 324.239 138.59 327.613 135.451C330.987 132.313 334.12 128.932 337.011 125.311C339.903 121.689 342.433 118.067 344.723 114.083C349.181 106.357 352.193 97.9064 354 89.4558C355.687 80.8845 355.928 72.3131 355.326 63.9832C354.723 55.6533 353.037 47.5648 350.988 39.8386C348.94 32.1123 346.169 24.7482 343.397 17.6255L343.638 17.7462C281.345 17.7462 230.98 17.6255 196.158 17.6255C178.687 17.6255 165.192 17.6255 156.035 17.6255C151.456 17.6255 147.962 17.6255 145.552 17.6255C143.142 17.7462 141.938 17.7462 141.938 17.7462Z" fill="#263238"/>
<path d="M335.324 73.641C365.567 78.5907 317.853 132.313 290.864 153.439C275.2 165.753 258.452 179.032 250.981 197.503C242.547 218.388 248.812 241.929 244.716 263.056C243.993 266.557 238.932 265.953 238.932 262.452C239.173 248.69 238.812 234.807 236.522 221.165C233.269 201.849 225.919 182.775 212.424 168.65C201.46 157.061 187.001 149.455 175.193 138.59C158.083 122.775 140.371 102.494 138.684 79.315C138.684 79.315 171.578 52.7559 189.893 56.1362C211.219 59.9993 232.305 93.0775 265.44 89.3351C288.574 86.5584 300.262 67.8463 335.324 73.641Z" fill="#55BC7E"/>
<path d="M337.975 360.962C337.252 353.357 335.204 344.785 328.457 341.284C324.36 339.111 319.42 339.353 314.962 340.56C310.503 341.767 306.286 343.82 301.949 345.027C293.273 347.562 283.755 347.321 275.2 344.182C267.006 341.164 259.898 335.731 252.307 331.385C244.716 327.039 235.799 323.9 227.245 325.953C212.665 329.574 204.954 347.2 190.495 351.546C184.109 353.477 177.121 352.391 170.614 350.942C164.108 349.494 157.481 347.562 150.854 347.803C145.552 348.045 140.13 349.856 136.516 353.477L136.395 353.598C135.793 354.202 135.19 354.805 134.708 355.53C130.25 361.566 129.527 369.534 130.852 376.898C132.419 385.107 136.275 392.712 140.371 399.956C145.191 408.527 150.733 416.978 158.686 422.652C168.566 429.654 180.976 424.825 193.025 425.791C221.1 427.964 251.343 429.533 279.537 427.36C294.358 426.153 308.335 427.843 320.143 418.668C328.457 412.27 333.879 402.612 336.409 392.35C339.06 382.089 339.06 371.344 337.975 360.962Z" fill="#55BC7E"/>
<g opacity="0.24">
<g opacity="0.24">
<path opacity="0.24" d="M284.96 346.355C283.393 348.769 282.67 352.029 284.237 354.564C285.803 356.978 287.851 359.272 288.454 362.169C289.538 366.636 286.767 370.982 284.839 375.087C281.224 382.451 279.658 390.781 280.863 398.869C282.068 406.958 286.164 414.684 292.671 419.634C295.563 421.807 299.177 423.497 302.672 422.531C305.925 421.565 307.973 418.185 308.696 414.926C309.299 411.545 308.817 408.165 308.335 404.785C306.407 389.091 306.768 373.155 309.54 357.582C310.021 354.926 310.383 352.029 308.817 349.976C307.732 348.648 306.045 348.045 304.479 347.562C298.213 345.268 291.466 347.683 284.96 346.355Z" fill="black"/>
</g>
</g>
<path d="M122.177 433.155C122.177 433.155 121.575 423.738 133.865 418.427H349.904C349.904 418.427 361.109 424.101 362.555 432.913L122.177 433.155Z" fill="#263238"/>
<path d="M345.325 18.9533C345.205 18.9533 345.084 19.0741 344.964 19.0741L141.817 17.7461C141.817 17.7461 141.094 17.2632 140.01 16.4182C134.226 11.8307 137.479 2.53498 144.829 2.65571L341.951 4.22511C350.145 4.34583 352.675 15.4524 345.325 18.9533Z" fill="#263238"/>
<g opacity="0.24">
<g opacity="0.24">
<path opacity="0.24" d="M312.913 96.5784C313.275 97.3027 311.829 99.1135 308.937 101.649C306.045 104.184 301.708 107.806 296.286 112.152C290.864 116.498 284.237 121.689 275.802 126.638C271.585 129.053 266.886 131.347 261.825 133.037C259.295 133.882 256.524 134.727 253.753 135.21C250.981 135.813 248.09 136.176 245.077 136.296C239.053 136.658 233.028 135.813 227.606 133.882C222.184 131.95 217.605 129.294 213.509 126.638C209.412 123.983 205.918 121.327 202.665 118.791C199.411 116.256 196.399 113.842 193.748 111.427C183.025 102.132 177.482 95.3711 178.567 94.0432C179.651 92.7152 187.242 97.0613 199.05 104.305C201.942 106.115 205.195 108.047 208.689 110.22C212.183 112.272 215.798 114.687 219.654 116.739C223.51 118.912 227.365 120.844 231.462 122.051C235.559 123.258 239.896 123.862 244.475 123.62C253.753 123.137 262.669 119.878 270.501 116.136C278.333 112.272 285.321 107.926 291.466 104.546C297.611 101.045 302.792 98.5099 306.527 97.182C310.142 95.9747 312.431 95.7333 312.913 96.5784Z" fill="black"/>
</g>
</g>
<path d="M239.173 288.166C241.342 287.321 244.113 289.615 243.631 291.909C243.27 294.202 240.017 295.53 238.089 293.961C236.281 292.512 236.763 289.011 238.932 288.166" fill="#55BC7E"/>
<path d="M166.518 130.26C166.518 130.26 166.277 130.019 165.795 129.536C165.313 129.053 164.71 128.329 163.867 127.363C163.023 126.397 161.939 125.311 160.855 123.862C159.77 122.413 158.445 120.844 156.999 119.033C155.673 117.222 154.228 115.17 152.661 112.997C151.938 111.91 151.215 110.703 150.492 109.496C150.131 108.892 149.769 108.289 149.408 107.685C149.046 107.081 148.685 106.357 148.324 105.753C145.311 100.562 142.66 94.4055 140.853 87.7657C138.925 81.1259 138.082 74.4861 137.961 68.45C137.961 67.0013 138.082 65.4319 138.082 64.1039C138.082 63.3796 138.082 62.6553 138.202 62.0516C138.323 61.3273 138.323 60.7237 138.443 59.9993C138.564 58.6714 138.684 57.3434 138.925 56.1362C139.166 54.929 139.407 53.7217 139.528 52.6352C139.889 50.3415 140.492 48.4099 140.853 46.5991C141.094 45.754 141.215 44.9089 141.456 44.1846C141.697 43.4603 141.938 42.7359 142.058 42.1323C142.42 40.9251 142.781 40.08 143.022 39.3557C143.263 38.7521 143.383 38.3899 143.383 38.3899C143.383 38.3899 143.263 38.7521 143.142 39.3557C142.901 40.08 142.66 41.0458 142.299 42.1323C142.058 42.7359 141.938 43.4603 141.697 44.1846C141.456 44.9089 141.335 45.754 141.094 46.5991C140.733 48.4099 140.13 50.3415 139.769 52.5145C139.528 53.601 139.407 54.8083 139.166 56.0155C139.046 57.2227 138.925 58.5507 138.805 59.8786C138.684 60.4822 138.684 61.2066 138.564 61.9309C138.443 62.6553 138.564 63.2589 138.443 63.9832C138.443 65.4319 138.323 66.8806 138.323 68.3292C138.443 74.3654 139.287 80.8845 141.215 87.5242C143.022 94.164 145.673 100.2 148.565 105.512C148.926 106.116 149.287 106.84 149.649 107.444C150.01 108.047 150.372 108.651 150.733 109.254C151.456 110.462 152.179 111.669 152.902 112.755C154.348 114.928 155.794 116.981 157.119 118.792C158.445 120.602 159.77 122.172 160.855 123.62C161.939 125.069 163.023 126.156 163.867 127.121C164.71 128.087 165.313 128.812 165.795 129.415C166.277 129.898 166.518 130.14 166.518 130.26Z" fill="#263238"/>
<path d="M155.071 309.534C155.071 309.534 155.191 309.414 155.312 309.172C155.432 308.931 155.673 308.569 156.035 308.086C156.396 307.603 156.758 306.999 157.24 306.275C157.481 305.913 157.722 305.55 157.963 305.068C158.204 304.705 158.565 304.222 158.927 303.86C159.65 303.015 160.373 302.049 161.336 300.963C162.3 299.997 163.385 298.911 164.469 297.824C166.759 295.651 169.53 293.237 172.783 290.822C179.169 285.993 187.483 281.164 196.399 275.49C200.857 272.593 205.556 269.575 209.894 265.953C214.352 262.332 218.569 258.106 222.064 253.157C228.932 243.016 231.582 231.306 231.823 220.803C232.064 210.179 229.895 200.763 227.245 193.278C224.594 185.793 221.461 179.998 219.292 176.135C218.208 174.204 217.244 172.755 216.642 171.668C216.401 171.186 216.16 170.823 215.919 170.582C215.798 170.34 215.678 170.22 215.678 170.22C215.678 170.22 215.798 170.34 215.919 170.582C216.16 170.823 216.401 171.186 216.642 171.668C217.364 172.634 218.208 174.083 219.413 176.014C221.702 179.878 224.835 185.552 227.606 193.157C230.377 200.642 232.667 210.179 232.426 220.803C232.426 223.459 232.185 226.235 231.703 228.891C231.341 231.668 230.739 234.444 229.895 237.221C228.329 242.774 225.799 248.328 222.425 253.519C218.931 258.589 214.593 262.814 210.135 266.557C205.677 270.299 200.978 273.317 196.52 276.094C187.483 281.768 179.29 286.476 172.904 291.305C169.65 293.72 166.879 296.013 164.59 298.186C163.505 299.273 162.421 300.359 161.457 301.325C160.614 302.412 159.77 303.257 159.047 304.222C158.686 304.705 158.324 305.068 158.083 305.43C157.842 305.792 157.601 306.275 157.36 306.637C156.878 307.361 156.517 307.965 156.155 308.448C155.794 308.931 155.553 309.293 155.432 309.534C155.191 309.414 155.071 309.534 155.071 309.534Z" fill="#263238"/>
<path d="M143.865 330.902C143.865 330.902 143.745 331.144 143.624 331.506C143.383 331.868 143.142 332.472 142.781 333.075C142.42 333.679 141.938 334.524 141.456 335.49C140.974 336.456 140.371 337.542 139.889 338.749C139.648 339.353 139.287 340.077 139.046 340.681C138.805 341.405 138.564 342.13 138.202 342.854C137.6 344.303 137.118 345.993 136.636 347.683C135.672 351.184 134.949 355.047 134.588 359.152C134.226 363.256 134.226 367.24 134.588 370.862C134.829 372.673 134.949 374.363 135.19 375.932C135.311 376.777 135.431 377.501 135.552 378.226C135.672 378.95 135.913 379.675 136.034 380.278C136.275 381.606 136.756 382.813 136.997 383.779C137.238 384.866 137.6 385.711 137.841 386.435C138.082 387.159 138.202 387.642 138.443 388.125C138.564 388.487 138.564 388.729 138.564 388.729C138.564 388.729 138.443 388.487 138.323 388.125C138.082 387.642 137.961 387.159 137.6 386.556C137.359 385.831 136.997 384.986 136.636 383.9C136.275 382.813 135.913 381.727 135.552 380.399C135.431 379.675 135.19 379.071 135.07 378.347C134.949 377.622 134.829 376.898 134.588 376.053C134.226 374.483 134.106 372.793 133.865 370.982C133.503 367.361 133.503 363.377 133.865 359.152C134.226 354.926 135.07 351.063 136.034 347.562C136.515 345.872 136.997 344.182 137.72 342.733C137.961 342.009 138.323 341.285 138.564 340.56C138.925 339.836 139.166 339.232 139.407 338.629C139.889 337.421 140.612 336.335 141.094 335.369C141.576 334.403 142.058 333.558 142.54 332.955C142.901 332.351 143.263 331.868 143.504 331.506C143.745 331.023 143.865 330.902 143.865 330.902Z" fill="#263238"/>
<path d="M292.791 359.876C292.791 359.876 292.671 359.997 292.55 359.997C292.309 360.117 292.068 360.238 291.827 360.48C291.105 360.962 290.141 361.445 288.936 362.29C288.333 362.653 287.61 363.135 286.767 363.498C285.923 363.981 285.08 364.343 284.116 364.826C282.188 365.791 280.14 366.878 277.61 367.844C276.405 368.327 275.079 368.93 273.754 369.413C272.429 369.896 270.983 370.379 269.537 370.862C266.645 371.948 263.392 372.673 260.018 373.638C253.15 375.208 245.559 376.294 237.366 376.536C229.293 376.656 221.582 375.932 214.593 374.846C211.099 374.121 207.846 373.518 204.834 372.673C203.388 372.19 201.821 371.948 200.496 371.465C199.17 370.983 197.845 370.5 196.52 370.137C193.989 369.292 191.821 368.327 189.893 367.482C188.929 366.999 187.965 366.636 187.242 366.274C186.398 365.912 185.676 365.429 185.073 365.188C183.748 364.463 182.784 363.981 182.061 363.618C181.699 363.498 181.458 363.256 181.338 363.135C181.217 363.015 181.097 363.015 181.097 363.015C181.097 363.015 181.217 363.015 181.338 363.135C181.579 363.256 181.82 363.377 182.181 363.498C182.904 363.86 183.989 364.343 185.194 364.946C185.917 365.308 186.639 365.671 187.362 366.033C188.206 366.395 189.049 366.757 190.013 367.119C191.941 367.844 194.11 368.93 196.64 369.655C197.845 370.137 199.17 370.5 200.616 370.982C201.942 371.465 203.508 371.707 204.954 372.19C207.966 373.035 211.22 373.638 214.593 374.363C221.461 375.449 229.173 376.174 237.245 376.053C245.318 375.811 252.909 374.725 259.777 373.156C263.151 372.31 266.404 371.586 269.296 370.5C270.742 370.017 272.188 369.655 273.513 369.051C274.838 368.568 276.164 367.964 277.369 367.482C279.899 366.516 281.947 365.429 283.875 364.584C284.839 364.101 285.683 363.739 286.526 363.256C287.249 362.773 287.972 362.411 288.695 362.049C289.9 361.325 290.984 360.842 291.707 360.359C292.068 360.238 292.309 359.997 292.43 359.997C292.791 359.876 292.791 359.876 292.791 359.876Z" fill="#263238"/>
<path d="M305.443 104.426C305.443 104.426 305.322 104.546 305.202 104.667C304.961 104.788 304.72 105.029 304.358 105.271C303.636 105.874 302.551 106.719 301.226 107.685C298.575 109.858 294.719 112.876 289.779 116.498C284.839 120.12 278.935 124.345 271.826 128.329C268.211 130.26 264.476 132.192 260.259 133.641C256.042 135.089 251.584 136.296 246.885 136.659C237.486 137.262 228.57 134.848 221.341 131.347C217.726 129.536 214.473 127.484 211.46 125.431C208.569 123.379 205.797 121.327 203.508 119.395C198.688 115.532 194.953 112.273 192.423 110.1C191.098 109.013 190.134 108.168 189.411 107.564C189.049 107.323 188.808 107.081 188.688 106.84C188.567 106.719 188.447 106.599 188.447 106.599C188.447 106.599 188.567 106.599 188.688 106.84C188.929 106.961 189.17 107.202 189.531 107.444C190.254 108.047 191.339 108.892 192.543 109.979C195.194 112.152 198.929 115.291 203.749 119.154C206.159 121.085 208.81 123.017 211.822 125.069C214.834 127.122 218.087 129.053 221.702 130.864C228.932 134.365 237.727 136.779 247.005 136.055C251.584 135.693 256.042 134.606 260.139 133.158C264.235 131.709 268.091 129.777 271.585 127.967C278.574 124.103 284.598 119.878 289.538 116.256C294.478 112.635 298.334 109.617 301.105 107.564C302.431 106.599 303.515 105.753 304.238 105.15C304.599 104.908 304.84 104.667 305.081 104.546C305.322 104.426 305.443 104.426 305.443 104.426Z" fill="#263238"/>
<g opacity="0.24">
<g opacity="0.24">
<path opacity="0.24" d="M196.761 370.017C202.424 365.55 210.497 366.636 217.605 368.206C224.714 369.655 231.823 372.069 238.932 371.103C244.354 370.379 249.294 367.723 254.596 366.516C259.898 365.309 266.404 366.274 269.296 370.741C245.8 378.467 219.895 378.105 196.761 370.017Z" fill="black"/>
</g>
</g>
<path d="M396.052 337.3L370.146 308.206L369.905 343.578L377.737 366.274L300.021 379.795L296.768 318.468L291.225 271.386C290.502 265.591 293.876 260.158 299.177 257.985L320.504 249.535L350.627 255.088L362.676 259.675C367.736 261.607 372.315 264.746 375.809 268.85L412.197 310.621" fill="#55BC7E"/>
<path d="M368.218 301.204C368.218 301.083 369.905 301.325 372.556 300.842C375.207 300.48 378.821 299.152 381.954 296.375C384.966 293.599 386.533 289.977 387.256 287.442C387.858 284.786 387.738 283.096 387.858 283.096C387.858 283.096 387.979 283.458 387.979 284.303C387.979 285.027 387.858 286.235 387.617 287.562C387.135 290.218 385.569 293.961 382.316 296.858C379.183 299.755 375.327 301.083 372.556 301.325C371.231 301.446 370.026 301.446 369.303 301.446C368.58 301.325 368.218 301.204 368.218 301.204Z" fill="white"/>
<path d="M369.847 314.68C369.971 329.815 370.233 342.083 370.432 342.082C370.632 342.08 370.694 329.809 370.57 314.674C370.446 299.54 370.184 287.272 369.985 287.273C369.785 287.275 369.723 299.545 369.847 314.68Z" fill="#263238"/>
<path d="M367.616 351.063L320.745 332.11C317.01 330.54 314.359 327.039 314.118 322.935L310.744 277.905C310.744 277.905 311.106 258.71 299.177 257.865L292.43 260.521C283.634 265.229 281.465 278.026 282.67 287.925C284.357 301.929 285.08 321.848 287.008 334.041C288.574 344.061 294.237 352.753 303.997 355.409L361.712 367.964L367.616 351.063Z" fill="#55BC7E"/>
<path d="M311.347 284.786C311.347 284.786 311.467 285.148 311.467 285.872C311.588 286.597 311.588 287.563 311.829 288.89C312.07 291.546 312.431 295.289 312.793 299.876C313.154 304.464 313.636 310.017 314.239 316.053C314.359 317.623 314.48 319.192 314.6 320.761C314.721 322.331 314.841 324.021 315.203 325.59C315.564 327.16 316.287 328.729 317.492 329.816C318.697 330.902 320.263 331.747 321.83 332.472C334.722 338.025 346.651 342.733 355.326 345.993C359.664 347.562 363.158 348.89 365.568 349.735C366.772 350.218 367.616 350.459 368.339 350.822C368.941 351.063 369.303 351.184 369.303 351.184C369.303 351.184 368.941 351.063 368.339 350.942C367.616 350.701 366.652 350.459 365.447 349.976C363.037 349.131 359.423 347.924 355.085 346.355C346.41 343.216 334.481 338.628 321.468 333.075C319.902 332.351 318.215 331.506 317.01 330.299C315.685 329.091 314.841 327.401 314.48 325.711C314.118 324.021 313.998 322.452 313.877 320.761C313.757 319.192 313.636 317.623 313.516 316.053C313.034 310.017 312.672 304.464 312.311 299.876C311.949 295.289 311.708 291.546 311.467 288.89C311.347 287.683 311.347 286.597 311.226 285.872C311.347 285.148 311.226 284.786 311.347 284.786Z" fill="#263238"/>
<path d="M284.478 309.293C284.478 309.293 284.478 309.534 284.598 309.896C284.598 310.379 284.719 310.983 284.719 311.586C284.839 313.156 285.08 315.329 285.321 317.985C285.562 320.641 285.923 323.9 286.405 327.401C286.887 330.902 287.49 334.886 288.574 338.87C289.056 340.922 289.779 342.733 290.864 344.302C291.948 345.872 293.153 347.321 294.358 348.648C296.888 351.184 299.539 352.995 301.828 354.322C306.648 356.858 310.142 356.858 310.021 356.978C310.021 356.978 309.781 356.978 309.419 356.978C309.058 356.978 308.455 356.858 307.732 356.737C306.286 356.496 304.117 355.892 301.587 354.685C299.177 353.477 296.406 351.667 293.876 349.011C292.55 347.683 291.346 346.234 290.261 344.665C289.177 342.975 288.333 341.043 287.851 338.991C286.767 335.007 286.164 331.023 285.803 327.522C285.321 323.9 285.08 320.761 284.839 317.985C284.598 315.329 284.478 313.035 284.478 311.586C284.478 310.862 284.478 310.259 284.478 309.896C284.357 309.534 284.357 309.293 284.478 309.293Z" fill="#263238"/>
<path d="M304.479 340.801C304.358 340.801 304.599 339.836 305.322 338.266C306.045 336.818 307.371 334.886 309.299 333.196C311.226 331.506 313.275 330.54 314.841 330.057C316.407 329.574 317.492 329.574 317.492 329.574C317.492 329.695 316.528 329.816 315.082 330.419C313.636 331.023 311.588 331.989 309.781 333.558C307.973 335.127 306.648 336.938 305.804 338.266C304.961 339.956 304.599 340.801 304.479 340.801Z" fill="#263238"/>
<path d="M313.757 306.516C313.757 306.516 313.877 306.516 313.998 306.637C314.239 306.758 314.48 306.878 314.841 307.12C315.564 307.482 316.648 308.085 318.215 308.568C321.107 309.534 325.806 310.621 331.348 309.655C336.891 308.81 343.277 305.55 347.735 299.514C349.904 296.496 351.591 292.874 352.073 288.89C352.314 286.838 352.073 284.786 351.47 282.854C350.868 280.923 349.663 279.112 348.096 277.663C346.53 276.215 344.602 275.249 342.554 275.007C340.506 274.645 338.457 275.249 337.011 276.577C336.288 277.301 335.927 278.146 335.927 279.112C335.927 280.078 336.288 280.923 336.891 281.647C337.975 283.216 339.903 283.82 341.71 284.182C345.325 284.665 348.94 284.062 351.952 282.734C354.964 281.406 357.495 279.474 359.182 277.301C360.989 275.128 362.073 272.834 362.676 270.661C363.278 268.488 363.519 266.557 363.519 264.987C363.519 263.418 363.399 262.211 363.278 261.366C363.158 261.003 363.158 260.641 363.158 260.4C363.158 260.158 363.158 260.038 363.158 260.038C363.158 260.038 363.881 261.728 363.881 264.867C363.881 266.436 363.76 268.488 363.037 270.661C362.435 272.834 361.35 275.249 359.543 277.542C357.736 279.836 355.205 281.768 352.193 283.216C349.06 284.544 345.446 285.269 341.59 284.786C339.783 284.544 337.734 283.82 336.409 282.13C335.806 281.285 335.324 280.319 335.324 279.233C335.324 278.146 335.806 277.06 336.529 276.335C338.096 274.766 340.385 274.283 342.554 274.645C344.723 274.887 346.771 275.973 348.337 277.422C350.024 278.87 351.229 280.802 351.832 282.854C352.555 284.907 352.675 287.08 352.434 289.132C352.073 293.237 350.265 296.979 347.976 300.118C343.397 306.275 336.891 309.534 331.228 310.379C325.565 311.224 320.866 310.138 317.974 309.051C315.082 307.603 313.757 306.516 313.757 306.516Z" fill="white"/>
<path d="M283.032 294.565C283.032 294.565 283.273 294.202 283.755 293.599C284.237 292.995 285.08 292.271 286.285 291.426C288.574 289.736 292.309 288.166 296.647 287.683C298.816 287.442 300.864 287.563 302.792 287.925C304.599 288.287 306.286 288.891 307.491 289.615C308.817 290.219 309.66 290.943 310.383 291.305C310.985 291.788 311.347 292.029 311.347 292.15C311.226 292.271 309.901 291.184 307.371 289.977C304.84 288.77 300.985 287.804 296.768 288.287C292.55 288.649 288.815 290.098 286.526 291.667C284.237 293.237 283.032 294.685 283.032 294.565Z" fill="white"/>
<path d="M290.502 262.331C290.623 262.211 291.707 263.78 294.358 265.108C295.683 265.832 297.25 266.315 299.177 266.557C301.105 266.798 303.154 266.557 305.202 265.712C307.25 264.867 308.937 263.539 310.021 261.969C311.226 260.521 311.949 258.951 312.431 257.503C313.275 254.726 313.034 252.794 313.154 252.915C313.154 252.915 313.275 253.398 313.275 254.243C313.275 255.088 313.154 256.295 312.793 257.744C312.431 259.193 311.588 260.883 310.383 262.452C309.178 264.022 307.371 265.47 305.322 266.315C303.154 267.16 300.985 267.402 298.936 267.16C297.009 266.919 295.201 266.315 293.996 265.591C292.671 264.867 291.707 264.022 291.225 263.418C290.743 262.694 290.502 262.331 290.502 262.331Z" fill="white"/>
<path d="M331.348 336.456C331.348 336.456 331.348 336.093 331.469 335.611C331.589 335.007 331.83 334.162 332.312 333.196C333.276 331.144 335.565 328.609 339.301 327.039C342.915 325.349 347.976 325.108 353.037 326.556C355.567 327.281 358.338 328.246 360.266 330.661C361.23 331.868 361.471 333.679 360.748 335.128C360.025 336.576 358.82 337.542 357.374 338.266C355.928 338.991 354.482 339.353 352.916 339.353C351.35 339.353 349.783 338.991 348.699 338.025C347.494 337.059 346.892 335.611 346.771 334.162C346.651 332.713 346.892 331.385 347.373 330.057C349.422 324.987 353.398 321.848 357.013 320.279C360.748 318.709 364.001 318.468 366.29 318.709C368.459 318.951 369.664 319.434 369.664 319.434C369.664 319.554 368.459 319.071 366.29 318.951C364.122 318.83 360.868 319.071 357.254 320.641C355.446 321.486 353.639 322.572 351.952 324.263C350.265 325.832 348.819 327.884 347.855 330.299C347.374 331.506 347.133 332.834 347.253 334.162C347.374 335.49 347.855 336.818 348.94 337.663C350.024 338.508 351.35 338.87 352.796 338.87C354.241 338.87 355.687 338.508 357.013 337.784C358.338 337.18 359.543 336.214 360.025 334.886C360.627 333.679 360.386 332.11 359.543 331.144C358.7 330.057 357.615 329.212 356.41 328.609C355.205 328.005 354 327.643 352.675 327.281C347.735 325.832 342.795 326.073 339.18 327.643C335.565 329.091 333.156 331.506 332.192 333.438C331.469 335.128 331.469 336.456 331.348 336.456Z" fill="white"/>
<path d="M300.141 353.357C300.141 353.236 301.949 353.115 304.599 352.15C307.25 351.184 310.865 349.252 313.877 345.993C316.769 342.733 318.335 338.991 319.058 336.214C319.781 333.438 319.661 331.627 319.781 331.627C319.781 331.627 319.902 332.11 319.902 332.955C319.902 333.8 319.781 335.007 319.54 336.335C318.938 339.232 317.492 343.095 314.359 346.476C311.347 349.856 307.612 351.787 304.84 352.633C303.395 353.115 302.31 353.236 301.467 353.357C300.623 353.357 300.141 353.357 300.141 353.357Z" fill="white"/>
<path d="M284.96 318.347C284.96 318.347 285.2 318.226 285.562 318.106C285.923 317.985 286.526 317.864 287.249 317.623C288.695 317.261 290.864 316.778 293.635 317.019C294.96 317.14 296.527 317.381 297.972 318.106C299.418 318.709 300.985 319.796 302.069 321.244C303.154 322.693 303.756 324.745 303.636 326.677C303.515 327.643 303.274 328.729 302.672 329.574C302.069 330.419 301.346 331.264 300.262 331.627C299.177 331.989 297.972 331.747 297.129 331.023C296.286 330.178 296.045 329.091 296.045 328.126C295.924 326.073 296.406 324.142 297.129 322.572C298.575 319.192 301.346 317.019 303.997 316.053C306.648 315.087 308.937 315.208 310.383 315.45C311.106 315.57 311.708 315.691 312.07 315.933C312.431 316.053 312.672 316.174 312.672 316.174C312.672 316.295 311.829 315.933 310.383 315.691C308.937 315.57 306.648 315.57 304.238 316.536C301.828 317.502 299.177 319.675 297.731 322.814C297.009 324.383 296.647 326.194 296.768 328.126C296.768 329.091 297.009 330.057 297.731 330.661C298.334 331.264 299.418 331.385 300.262 331.144C301.105 330.902 301.828 330.178 302.431 329.333C302.913 328.488 303.154 327.643 303.274 326.677C303.395 324.866 302.792 322.934 301.828 321.607C300.864 320.158 299.418 319.192 297.972 318.588C296.527 317.985 295.081 317.623 293.755 317.502C291.105 317.261 288.936 317.623 287.49 317.985C285.803 318.226 284.96 318.347 284.96 318.347Z" fill="white"/>
<g opacity="0.3">
<g opacity="0.3">
<path opacity="0.3" d="M354.121 345.631C349.06 342.733 344.241 340.56 338.939 338.266C333.638 335.852 328.577 332.834 325.083 328.126C318.576 319.434 319.299 306.758 312.672 298.186C313.154 303.981 313.516 309.776 313.998 315.57C314.359 320.882 313.636 326.194 317.01 329.816C319.902 332.834 325.444 335.248 329.42 336.456C337.614 339.111 346.169 342.975 354.121 345.631Z" fill="black"/>
</g>
</g>
<path d="M435.693 411.907C435.693 411.907 474.973 422.773 476.539 423.376C478.949 424.221 478.467 432.913 474.852 432.793C473.165 432.672 444.73 433.879 441.115 433.638C437.5 433.396 426.656 429.171 426.656 429.171L435.693 411.907Z" fill="#55BC7E"/>
<path d="M452.08 426.877C452.321 426.877 452.562 424.825 453.766 422.652C454.971 420.479 456.658 419.151 456.538 419.03C456.417 418.91 454.489 419.996 453.164 422.29C451.839 424.704 451.839 426.877 452.08 426.877Z" fill="#263238"/>
<path d="M447.983 425.066C448.224 425.066 448.585 423.256 449.67 421.203C450.754 419.151 451.959 417.702 451.839 417.582C451.718 417.461 450.152 418.789 449.067 420.962C447.862 423.014 447.742 425.066 447.983 425.066Z" fill="#263238"/>
<path d="M444.127 423.98C444.368 423.98 444.127 422.048 445.091 419.875C445.935 417.702 447.38 416.374 447.26 416.254C447.139 416.133 445.453 417.34 444.489 419.634C443.404 421.928 443.886 424.101 444.127 423.98Z" fill="#263238"/>
<path d="M444.73 418.91C444.85 418.91 445.091 417.823 445.091 416.012C445.091 415.046 444.971 413.96 444.73 412.753C444.609 412.149 444.368 411.545 444.127 410.942C444.007 410.58 443.886 410.217 443.525 409.976C443.163 409.614 442.44 409.735 442.199 410.097C441.838 410.459 441.717 410.821 441.717 411.183C441.717 411.545 441.717 411.908 441.717 412.27C441.717 412.994 441.838 413.598 441.958 414.201C442.199 415.409 442.681 416.374 443.163 417.219C444.127 418.789 444.85 419.634 444.971 419.634C445.091 419.513 444.368 418.668 443.645 417.099C443.284 416.254 442.802 415.288 442.561 414.201C442.44 413.598 442.32 412.994 442.32 412.39C442.32 411.787 442.32 411.063 442.681 410.7C442.922 410.58 443.043 410.58 443.163 410.7C443.284 410.821 443.525 411.062 443.645 411.425C443.886 412.028 444.127 412.632 444.248 413.115C444.609 414.201 444.73 415.288 444.73 416.133C444.85 417.823 444.73 418.91 444.73 418.91Z" fill="#263238"/>
<path d="M444.73 418.547C444.73 418.427 443.766 418.185 442.199 418.185C441.356 418.185 440.392 418.306 439.428 418.547C438.946 418.668 438.344 418.789 437.862 419.151C437.38 419.392 436.777 420.117 437.018 420.962C437.139 421.686 437.862 422.169 438.464 422.41C439.067 422.531 439.669 422.531 440.272 422.41C441.356 422.169 442.199 421.686 442.802 421.203C444.007 420.237 444.73 419.513 444.609 419.392C444.489 419.272 443.766 419.996 442.561 420.841C441.958 421.203 441.115 421.686 440.151 421.927C439.669 422.048 439.187 422.048 438.705 421.927C438.223 421.807 437.862 421.445 437.741 420.962C437.621 420.479 437.862 420.117 438.344 419.875C438.705 419.634 439.308 419.513 439.79 419.272C440.753 419.03 441.717 418.909 442.44 418.789C443.766 418.427 444.73 418.668 444.73 418.547Z" fill="#263238"/>
<path d="M458.104 427.36C458.345 427.36 458.104 425.67 458.827 423.859C459.55 422.048 460.875 420.962 460.755 420.841C460.634 420.72 459.068 421.565 458.225 423.618C457.381 425.549 457.863 427.36 458.104 427.36Z" fill="#263238"/>
<path d="M430.632 429.171C430.632 429.171 431.114 429.412 432.199 429.895C433.163 430.257 434.729 430.861 436.536 431.223C440.271 432.189 445.694 432.672 451.477 432.672C457.381 432.551 462.683 432.31 466.538 432.189C468.346 432.068 469.912 432.068 471.117 431.948C472.201 431.827 472.804 431.827 472.804 431.827C472.804 431.827 472.201 431.706 471.117 431.706C469.912 431.706 468.346 431.706 466.538 431.706C462.562 431.827 457.381 431.827 451.477 431.948C445.573 432.068 440.392 431.585 436.657 430.74C432.922 430.016 430.753 429.05 430.632 429.171Z" fill="#263238"/>
<path d="M429.548 430.016C429.548 430.137 430.632 429.533 432.44 428.688C434.247 427.964 436.898 426.998 439.91 427.481C442.922 427.964 444.971 429.895 446.296 431.344C447.621 432.793 448.465 433.758 448.585 433.638C448.585 433.638 447.983 432.551 446.658 430.982C446.055 430.257 445.212 429.292 444.007 428.567C442.922 427.722 441.476 427.119 439.91 426.877C436.777 426.394 434.006 427.481 432.199 428.326C430.391 429.171 429.427 430.016 429.548 430.016Z" fill="#263238"/>
<path d="M394.003 401.042C394.003 401.042 356.892 425.429 355.567 426.394C353.518 427.964 355.808 435.086 359.302 433.879C360.989 433.276 392.075 424.584 395.449 423.256C398.823 421.928 407.86 414.563 407.86 414.563L394.003 401.042Z" fill="#55BC7E"/>
<path d="M383.039 420.358C383.159 420.358 382.557 418.185 380.508 416.374C378.58 414.563 376.291 414.081 376.291 414.201C376.171 414.443 378.219 415.046 380.026 416.857C381.954 418.547 382.798 420.358 383.039 420.358Z" fill="#263238"/>
<path d="M386.292 417.34C386.412 417.219 385.689 415.408 384.003 413.718C382.316 412.028 380.508 411.183 380.388 411.425C380.267 411.545 381.954 412.632 383.521 414.201C385.207 415.771 386.171 417.34 386.292 417.34Z" fill="#263238"/>
<path d="M389.666 415.167C389.786 415.167 389.666 412.994 388.099 411.063C386.533 409.131 384.485 408.407 384.485 408.648C384.364 408.769 386.171 409.614 387.617 411.545C389.063 413.236 389.425 415.167 389.666 415.167Z" fill="#263238"/>
<path d="M387.497 410.459C387.617 410.459 387.135 409.372 386.653 407.682C386.412 406.837 386.292 405.751 386.171 404.543C386.171 403.94 386.171 403.336 386.171 402.732C386.171 402.37 386.292 402.129 386.412 401.887C386.533 401.767 386.653 401.646 386.894 401.767C387.376 401.887 387.497 402.612 387.738 403.215C387.979 403.819 388.099 404.423 388.099 405.026C388.22 406.233 388.099 407.199 387.979 408.165C387.738 409.976 387.376 411.062 387.497 411.062C387.617 411.062 388.099 410.097 388.461 408.286C388.702 407.441 388.822 406.233 388.702 405.026C388.702 404.423 388.581 403.819 388.34 403.095C388.22 402.732 388.099 402.491 387.979 402.129C387.858 401.767 387.617 401.405 387.135 401.284C386.774 401.042 386.051 401.163 385.81 401.646C385.569 402.008 385.569 402.37 385.448 402.732C385.448 403.457 385.448 404.06 385.448 404.664C385.569 405.871 385.81 406.958 386.051 407.803C386.774 409.614 387.376 410.579 387.497 410.459Z" fill="#263238"/>
<path d="M387.376 410.097C387.376 410.217 388.34 409.734 389.786 409.372C390.509 409.252 391.473 409.01 392.437 409.01C392.919 409.01 393.521 409.01 394.003 409.131C394.485 409.252 394.847 409.493 394.847 409.976C394.847 410.459 394.606 410.942 394.244 411.183C393.883 411.425 393.401 411.545 392.919 411.666C391.955 411.787 390.991 411.545 390.268 411.425C388.822 410.942 387.858 410.58 387.858 410.7C387.858 410.821 388.702 411.304 390.148 411.907C390.87 412.149 391.834 412.39 392.919 412.27C393.401 412.27 394.003 412.149 394.606 411.787C395.208 411.425 395.57 410.821 395.57 409.976C395.57 409.131 394.726 408.648 394.124 408.527C393.521 408.407 392.919 408.406 392.437 408.406C391.352 408.527 390.389 408.648 389.666 408.889C388.099 409.493 387.376 410.097 387.376 410.097Z" fill="#263238"/>
<path d="M364.001 432.551C364.001 432.551 364.604 432.189 364.965 431.103C365.327 430.016 365.086 428.447 364.242 427.119C363.881 426.394 363.399 425.791 363.037 425.308C362.676 424.825 362.194 424.221 361.832 423.98C361.35 423.618 360.989 423.497 360.627 423.497C360.266 423.497 360.145 423.618 360.145 423.618C360.145 423.739 360.868 423.618 361.471 424.342C361.832 424.704 362.194 425.187 362.555 425.67C362.917 426.274 363.399 426.877 363.76 427.481C364.483 428.809 364.724 430.137 364.604 431.103C364.363 431.948 364.001 432.431 364.001 432.551Z" fill="#263238"/>
<path d="M377.376 422.531C377.496 422.531 377.496 420.6 376.05 418.91C374.604 417.219 372.797 416.857 372.797 416.978C372.676 417.219 374.243 417.823 375.568 419.272C376.894 420.962 377.135 422.531 377.376 422.531Z" fill="#263238"/>
<path d="M404.004 415.891C404.004 415.891 403.401 416.254 402.317 416.978C401.233 417.702 399.787 418.668 397.738 419.755C395.69 420.841 393.28 421.928 390.509 423.014C387.738 424.101 384.484 425.066 381.231 426.032C374.604 427.964 368.459 429.775 364.122 430.982C362.073 431.585 360.266 432.189 358.941 432.551C357.736 432.913 357.013 433.155 357.133 433.276C357.133 433.276 357.856 433.155 359.061 432.913C360.386 432.551 362.194 432.068 364.242 431.585C368.7 430.378 374.725 428.688 381.352 426.756C384.725 425.791 387.858 424.825 390.63 423.738C393.401 422.652 395.931 421.445 397.859 420.358C399.907 419.272 401.353 418.185 402.317 417.34C403.522 416.495 404.004 416.012 404.004 415.891Z" fill="#263238"/>
<path d="M405.329 416.495C405.329 416.374 404.124 416.012 402.197 415.65C400.269 415.288 397.256 415.167 394.365 416.616C392.919 417.34 391.834 418.427 390.991 419.513C390.148 420.6 389.666 421.686 389.304 422.652C388.581 424.463 388.22 425.67 388.22 425.791C388.34 425.791 388.822 424.704 389.666 422.893C390.509 421.203 391.955 418.668 394.606 417.34C397.256 416.012 400.148 416.012 402.076 416.253C404.124 416.253 405.329 416.495 405.329 416.495Z" fill="#263238"/>
<path d="M471.238 341.647C471.238 341.647 482.323 345.631 482.443 358.186C482.564 382.21 434.126 408.527 434.126 408.527L369.544 365.791L365.447 364.101C365.568 364.101 452.562 331.385 471.238 341.647Z" fill="#263238"/>
<path d="M402.197 387.401C402.197 387.401 402.799 387.038 403.883 386.314C404.968 385.59 406.414 384.383 408.342 382.934C412.077 380.037 417.017 376.053 422.439 371.344C427.861 366.636 432.56 362.29 435.934 359.151C437.621 357.582 438.946 356.254 439.91 355.288C440.874 354.322 441.356 353.84 441.235 353.84C441.235 353.84 440.633 354.322 439.669 355.168C438.585 356.133 437.259 357.341 435.572 358.91C432.078 362.049 427.379 366.395 421.957 370.982C416.535 375.57 411.595 379.674 407.98 382.692C406.293 384.141 404.847 385.348 403.763 386.193C402.799 386.797 402.197 387.28 402.197 387.401Z" fill="#455A64"/>
<path d="M453.043 350.58C453.043 350.46 450.152 350.097 446.778 351.184C443.404 352.15 441.115 353.96 441.235 354.081C441.356 354.202 443.645 352.753 446.898 351.787C450.152 350.822 453.043 350.822 453.043 350.58Z" fill="#455A64"/>
<path d="M447.38 346.838C447.38 346.717 445.212 347.562 443.525 349.735C441.838 351.787 441.356 354.081 441.476 354.081C441.717 354.202 442.32 352.149 444.007 350.097C445.694 348.045 447.501 346.958 447.38 346.838Z" fill="#455A64"/>
<path d="M474.732 422.773C474.732 422.652 474.009 422.531 473.045 423.256C472.201 423.98 471.479 425.308 471.238 426.998C470.997 428.688 471.358 430.137 471.84 431.103C472.322 432.068 472.804 432.551 472.804 432.551C472.924 432.43 472.563 431.948 472.201 430.982C471.84 430.016 471.599 428.688 471.84 427.119C472.081 425.67 472.683 424.342 473.406 423.618C474.009 422.893 474.732 422.773 474.732 422.773Z" fill="#263238"/>
<path d="M456.417 302.412L433.404 360.721L334.602 362.411L332.674 356.979L367.375 355.771L384.003 303.981L456.417 302.412Z" fill="#455A64"/>
<path d="M410.149 327.643C411.474 326.798 413.764 327.16 414.848 328.126C415.932 329.091 416.414 330.902 415.812 332.351C415.21 333.799 413.764 334.765 412.197 334.886C410.631 335.007 408.824 333.92 408.462 332.351C408.101 330.902 408.583 328.488 410.149 327.643Z" fill="#EBEBEB"/>
<path d="M440.151 411.425C440.151 411.425 349.06 351.546 345.325 350.339C341.59 349.132 332.553 343.216 323.516 345.631C314.48 348.166 306.407 356.254 302.431 368.085C300.141 374.846 299.057 386.435 298.575 395.006C297.973 405.389 301.105 415.65 307.853 423.497C310.865 427.119 314.721 430.137 319.179 431.586C320.143 431.827 321.107 432.189 322.071 432.31C339.301 436.052 357.013 428.326 366.652 413.598L368.821 410.338C368.821 410.338 428.343 432.31 429.307 431.948L440.151 411.425Z" fill="#263238"/>
<path d="M327.493 395.006C327.493 395.006 327.613 395.127 327.975 395.248C328.336 395.368 328.818 395.61 329.42 395.851C330.746 396.334 332.674 397.058 335.204 398.024C340.265 399.956 347.614 402.732 356.651 406.113C365.809 409.493 376.653 413.598 388.943 418.064C401.233 422.531 414.728 427.481 429.307 432.31L429.548 432.43L429.668 432.189C431.958 427.843 434.367 423.255 436.777 418.547C437.982 416.133 439.308 413.839 440.392 411.545L440.513 411.304L440.272 411.183C412.92 393.799 388.461 378.226 370.749 366.998C361.953 361.445 354.844 356.978 349.904 353.84C347.494 352.27 345.566 351.063 344.241 350.339C343.638 349.976 343.156 349.614 342.795 349.373C342.433 349.131 342.313 349.131 342.313 349.131C342.313 349.131 342.433 349.252 342.795 349.494C343.156 349.735 343.638 350.097 344.241 350.459C345.566 351.304 347.373 352.512 349.904 354.081C354.844 357.22 361.832 361.807 370.628 367.481C388.22 378.709 412.679 394.403 440.031 411.787L439.91 411.304C438.705 413.477 437.5 415.891 436.295 418.306C433.886 423.014 431.476 427.601 429.186 431.947L429.548 431.827C415.089 426.877 401.474 422.048 389.184 417.581C376.894 413.115 366.05 409.131 356.892 405.751C347.735 402.37 340.506 399.714 335.324 397.783C332.794 396.817 330.866 396.213 329.541 395.61C328.938 395.368 328.336 395.248 327.975 395.127C327.613 395.006 327.493 395.006 327.493 395.006Z" fill="#455A64"/>
<path d="M336.891 182.413C338.457 178.187 341.831 176.376 346.169 175.29C350.506 174.203 355.326 175.531 358.7 178.549C360.868 180.602 362.555 183.378 365.206 184.586C369.664 186.638 375.448 183.62 379.665 186.155C382.195 187.604 383.4 190.984 382.436 193.761C381.472 196.537 378.46 198.348 375.568 197.986C378.46 199.314 379.062 203.781 377.014 206.316C374.966 208.851 371.231 209.575 368.218 208.61C365.086 207.765 362.555 205.591 360.266 203.177C358.097 200.763 356.169 198.107 353.76 195.934C351.35 193.761 348.458 191.95 345.205 191.829C340.867 191.708 336.77 194.606 334.481 198.348C332.192 202.091 331.348 206.557 330.746 210.903C330.143 215.249 329.661 219.716 327.975 223.7C327.734 224.183 327.493 224.666 327.011 224.786C326.288 224.907 325.806 224.183 325.444 223.459C322.191 215.732 320.384 207.402 320.263 198.952C320.263 194.123 320.745 189.535 323.757 185.672C326.77 181.809 333.879 179.515 336.891 182.413Z" fill="#263238"/>
<path d="M326.649 201.849L319.902 250.621C318.817 258.951 324.721 266.436 333.156 267.16C340.867 267.885 347.855 262.332 348.94 254.605C349.422 250.984 349.904 247.845 349.904 247.483C349.904 247.483 362.435 247.965 365.086 235.893C366.29 229.978 367.977 217.664 369.182 206.557C370.628 194.606 362.555 183.499 350.747 181.206L349.542 180.964C336.77 179.153 328.095 189.052 326.649 201.849Z" fill="#FFBE9D"/>
<path d="M349.904 247.362C349.904 247.362 342.072 246.396 334.963 239.635C334.963 239.635 337.011 249.173 349.301 250.501L349.904 247.362Z" fill="#EB996E"/>
<path d="M364.001 214.042C363.881 215.008 362.917 215.611 361.953 215.491C360.989 215.37 360.266 214.525 360.507 213.559C360.627 212.593 361.591 211.99 362.555 212.111C363.519 212.231 364.122 213.076 364.001 214.042Z" fill="#263238"/>
<path d="M365.327 211.99C365.086 212.231 364.001 210.903 362.073 210.541C360.266 210.179 358.7 210.783 358.459 210.541C358.338 210.42 358.7 210.058 359.423 209.696C360.145 209.334 361.23 209.213 362.314 209.455C363.519 209.696 364.363 210.3 364.845 210.903C365.327 211.507 365.447 211.869 365.327 211.99Z" fill="#263238"/>
<path d="M345.566 211.024C345.446 211.99 344.482 212.593 343.518 212.473C342.554 212.352 341.831 211.507 342.072 210.541C342.192 209.575 343.156 208.972 344.12 209.092C344.964 209.213 345.687 210.058 345.566 211.024Z" fill="#263238"/>
<path d="M346.892 208.73C346.651 208.972 345.566 207.644 343.638 207.282C341.831 206.92 340.265 207.523 340.024 207.282C339.903 207.161 340.265 206.799 340.988 206.437C341.71 206.074 342.795 205.954 343.879 206.195C345.084 206.437 345.928 207.04 346.41 207.644C346.892 208.127 347.012 208.61 346.892 208.73Z" fill="#263238"/>
<path d="M350.988 223.941C350.988 223.821 352.193 223.821 354.121 223.941C354.603 223.941 355.085 223.941 355.205 223.7C355.446 223.338 355.326 222.855 355.205 222.251C354.964 221.044 354.723 219.716 354.482 218.267C353.519 212.714 353.037 208.127 353.157 208.127C353.398 208.127 354.362 212.593 355.205 218.147C355.446 219.475 355.687 220.803 355.808 222.131C355.928 222.734 356.049 223.338 355.687 224.062C355.446 224.424 355.085 224.545 354.723 224.545C354.362 224.545 354.121 224.545 353.88 224.545C352.073 224.304 350.868 224.062 350.988 223.941Z" fill="#263238"/>
<path d="M345.205 224.062C345.566 224.062 345.084 226.115 346.53 227.925C347.976 229.736 350.145 229.978 350.145 230.219C350.145 230.34 349.542 230.461 348.699 230.34C347.855 230.219 346.53 229.616 345.687 228.529C344.843 227.442 344.602 226.115 344.723 225.269C344.723 224.545 345.084 224.062 345.205 224.062Z" fill="#263238"/>
<path d="M348.819 201.487C348.578 201.97 346.771 201.366 344.481 201.125C342.192 200.883 340.385 201.246 340.144 200.642C340.023 200.4 340.505 200.038 341.228 199.676C342.071 199.314 343.276 199.073 344.602 199.193C345.927 199.314 347.132 199.797 347.855 200.28C348.698 200.763 348.939 201.246 348.819 201.487Z" fill="#263238"/>
<path d="M365.809 206.437C365.447 206.799 364.242 206.075 362.676 205.712C361.109 205.35 359.784 205.471 359.543 204.867C359.423 204.626 359.784 204.264 360.386 203.902C360.989 203.66 362.073 203.419 363.158 203.66C364.242 203.902 365.086 204.505 365.568 204.988C365.808 205.833 365.929 206.316 365.809 206.437Z" fill="#263238"/>
<path d="M325.806 211.145C325.565 211.024 317.974 207.04 316.528 215.37C315.082 223.7 323.878 223.459 323.878 223.217C323.998 222.976 325.806 211.145 325.806 211.145Z" fill="#FFBE9D"/>
<path d="M321.95 219.595C321.95 219.595 321.83 219.716 321.468 219.716C321.227 219.837 320.745 219.837 320.384 219.595C319.54 219.113 319.058 217.543 319.299 216.095C319.42 215.37 319.661 214.646 320.022 214.042C320.384 213.439 320.866 213.076 321.348 213.076C321.83 213.076 322.071 213.318 322.191 213.68C322.312 213.922 322.191 214.042 322.191 214.163C322.191 214.163 322.432 214.042 322.432 213.68C322.432 213.559 322.312 213.318 322.191 213.076C322.071 212.835 321.709 212.714 321.468 212.714C320.866 212.594 320.143 213.197 319.781 213.801C319.299 214.404 319.058 215.249 318.938 216.095C318.697 217.785 319.299 219.475 320.504 220.078C321.107 220.32 321.589 220.199 321.83 220.078C321.83 219.837 321.95 219.595 321.95 219.595Z" fill="#EB996E"/>
<path d="M372.195 204.505C366.531 204.867 360.748 202.332 357.254 197.865C354.844 194.727 353.278 190.743 349.783 188.811C347.494 187.483 344.602 187.483 342.072 188.328C339.542 189.173 337.252 190.743 335.324 192.433C336.409 199.073 333.517 205.712 330.625 211.748C330.264 212.473 329.902 213.197 329.3 213.439C328.216 214.042 326.77 213.076 326.167 211.99C325.083 210.3 324.962 208.127 324.962 206.074C325.083 201.487 325.806 196.779 327.734 192.553C329.661 188.328 332.553 184.586 336.529 182.051C341.349 178.912 347.494 178.067 353.157 179.274C358.82 180.481 363.881 183.741 367.736 188.087C369.544 190.139 371.11 192.433 371.713 194.968" fill="#263238"/>
<path d="M35.0627 401.163C35.0627 401.163 35.1831 401.042 35.3036 400.68C35.4241 400.318 35.6651 399.835 36.0266 399.232C36.629 397.904 37.352 395.972 38.0749 393.437C39.4003 388.246 39.8823 380.278 37.9544 370.862C36.9905 366.153 35.5446 361.083 33.7373 355.771C31.9299 350.339 29.8816 344.665 28.1947 338.508C26.5078 332.351 25.1825 325.711 25.4234 318.709C25.6644 311.707 27.7127 304.705 30.0021 297.703C32.2914 290.701 34.5807 283.941 35.3036 277.06C36.1471 270.178 34.5807 263.539 31.5684 257.985C28.5562 252.432 24.7005 247.603 21.9292 242.774C19.0375 237.825 17.2301 232.754 16.1457 228.046C13.9769 218.509 14.6998 210.541 15.7842 205.35C16.8686 200.038 18.194 197.382 18.194 197.382C18.194 197.382 18.194 197.624 18.0735 197.865C17.953 198.227 17.8325 198.71 17.5916 199.435C17.2301 200.763 16.6276 202.815 16.1457 205.471C15.1818 210.783 14.5793 218.63 16.7481 228.046C17.8325 232.754 19.6399 237.704 22.5317 242.533C25.4234 247.362 29.1586 252.191 32.2914 257.744C35.4241 263.297 36.9905 270.299 36.1471 277.18C35.4241 284.182 33.0143 291.064 30.8455 297.945C28.5562 304.947 26.5078 311.828 26.2669 318.709C26.0259 325.59 27.2308 332.23 28.9177 338.387C30.6045 344.544 32.6528 350.218 34.3397 355.65C36.1471 361.083 37.593 366.153 38.4364 370.862C40.3642 380.399 39.7618 388.366 38.4364 393.558C37.7134 396.213 36.87 398.145 36.2676 399.352C35.9061 399.956 35.6651 400.439 35.5446 400.801C35.1831 401.042 35.0627 401.163 35.0627 401.163Z" fill="#263238"/>
<path d="M25.7849 247.483C25.7849 247.483 20.0014 229.012 30.3636 218.147C30.725 217.785 31.3275 217.905 31.448 218.509C31.9299 221.648 32.6529 230.943 25.7849 247.483Z" fill="#55BC7E"/>
<path d="M29.1586 224.424C29.2791 224.424 29.0381 225.752 28.7972 227.805C28.4357 230.098 27.9537 232.875 27.4718 236.014C26.9898 239.032 26.5079 241.808 26.1464 244.102C25.7849 246.155 25.6644 247.482 25.5439 247.482C25.4234 247.482 25.4234 246.155 25.6644 244.102C25.9054 242.05 26.2669 239.032 26.7488 235.893C27.2308 232.754 27.8332 229.857 28.3152 227.805C28.7972 225.632 29.1586 224.304 29.1586 224.424Z" fill="#263238"/>
<path d="M32.5323 291.064C32.5323 291.064 36.0266 271.989 50.2444 267.281C50.7264 267.16 51.2083 267.523 51.0879 268.126C50.1239 271.144 46.3887 279.595 32.5323 291.064Z" fill="#55BC7E"/>
<path d="M46.3888 272.231C46.5093 272.351 45.6658 273.317 44.4609 275.007C43.015 276.939 41.3282 279.112 39.5208 281.647C37.7135 284.062 36.0266 286.355 34.5807 288.287C33.3758 289.977 32.5324 291.064 32.4119 290.943C32.2914 290.943 33.0143 289.736 34.0988 287.925C35.3037 286.114 36.9905 283.699 38.9184 281.164C40.8462 278.629 42.6536 276.335 44.0995 274.645C45.4248 273.196 46.2683 272.231 46.3888 272.231Z" fill="#263238"/>
<path d="M28.6767 338.87C28.6767 338.87 26.5079 319.675 38.7979 310.983C39.2799 310.621 39.7618 310.983 39.7618 311.466C39.7618 314.605 38.6774 323.78 28.6767 338.87Z" fill="#55BC7E"/>
<path d="M36.5085 316.778C36.629 316.778 36.1471 318.106 35.4241 320.037C34.5807 322.21 33.6168 324.866 32.5324 327.763C31.448 330.661 30.484 333.317 29.7611 335.49C29.0381 337.421 28.6767 338.749 28.5562 338.628C28.4357 338.628 28.6767 337.301 29.2791 335.248C29.8816 333.196 30.8455 330.419 31.9299 327.401C33.0143 324.383 34.0987 321.607 34.9422 319.675C35.7856 317.864 36.3881 316.778 36.5085 316.778Z" fill="#263238"/>
<path d="M39.4003 386.918C39.4003 386.918 37.9544 367.602 50.4854 359.393C50.9674 359.152 51.4493 359.393 51.4493 359.997C51.3289 363.015 49.883 372.19 39.4003 386.918Z" fill="#55BC7E"/>
<path d="M47.9551 365.067C48.0756 365.067 47.5936 366.395 46.7502 368.326C45.9068 370.499 44.8224 373.155 43.6175 375.932C42.4126 378.829 41.4486 381.365 40.4847 383.538C39.7618 385.469 39.2798 386.676 39.1593 386.676C39.0388 386.676 39.4003 385.348 40.0027 383.296C40.6052 381.244 41.6896 378.588 42.8945 375.57C44.0994 372.552 45.3043 369.896 46.2682 367.964C47.2322 366.274 47.8346 365.067 47.9551 365.067Z" fill="#263238"/>
<path d="M17.4711 231.306C17.4711 231.306 0.361471 222.372 0 207.402C0 206.919 0.602451 206.557 0.963922 206.799C3.49422 208.61 10.6031 214.646 17.4711 231.306Z" fill="#55BC7E"/>
<path d="M3.61469 212.473C3.73518 212.473 4.45812 213.438 5.78352 215.129C7.2294 217.06 8.79577 219.354 10.6031 221.768C12.4105 224.304 14.0973 226.477 15.4227 228.408C16.6276 230.098 17.4711 231.185 17.3506 231.185C17.2301 231.305 16.3867 230.34 14.9408 228.65C13.6154 227.08 11.808 224.666 9.88019 222.131C7.95234 219.475 6.38597 217.06 5.18107 215.249C4.09665 213.68 3.4942 212.593 3.61469 212.473Z" fill="#263238"/>
<path d="M35.9061 270.903C35.9061 270.903 18.3145 263.056 16.9891 248.086C16.9891 247.603 17.4711 247.241 17.9531 247.483C20.6038 249.173 27.9537 254.726 35.9061 270.903Z" fill="#55BC7E"/>
<path d="M20.8448 253.036C20.9653 252.915 21.8088 254.002 23.1341 255.571C24.58 257.382 26.3874 259.555 28.3152 261.969C30.2431 264.384 32.0504 266.557 33.4963 268.368C34.8217 269.937 35.6651 271.024 35.6651 271.024C35.5446 271.144 34.5807 270.178 33.1348 268.73C31.689 267.16 29.7611 264.987 27.7128 262.452C25.6644 259.917 23.8571 257.623 22.6522 255.933C21.4473 254.243 20.7243 253.156 20.8448 253.036Z" fill="#263238"/>
<path d="M25.6644 315.208C25.6644 315.208 13.4949 300.118 19.2784 286.235C19.5194 285.752 20.1218 285.631 20.3628 286.114C22.0497 288.77 26.0259 297.221 25.6644 315.208Z" fill="#55BC7E"/>
<path d="M20.4834 292.392C20.6038 292.392 20.8448 293.599 21.3268 295.651C21.8088 297.945 22.4112 300.722 23.1341 303.74C23.7366 306.758 24.339 309.534 24.9415 311.828C25.4235 313.88 25.6644 315.208 25.544 315.208C25.4235 315.208 24.9415 314.001 24.339 311.949C23.7366 309.896 23.0137 307.12 22.4112 303.86C21.6883 300.722 21.2063 297.824 20.8448 295.772C20.4834 293.72 20.3629 292.392 20.4834 292.392Z" fill="#263238"/>
<path d="M37.7135 367.24C37.7135 367.24 20.2424 359.031 19.2784 344.061C19.2784 343.578 19.7604 343.216 20.2424 343.457C22.7727 345.148 30.1226 350.942 37.7135 367.24Z" fill="#55BC7E"/>
<path d="M23.0137 349.131C23.1342 349.131 23.9776 350.097 25.303 351.667C26.7489 353.477 28.5562 355.771 30.3636 358.186C32.2914 360.6 33.9783 362.773 35.5447 364.584C36.8701 366.274 37.7135 367.24 37.593 367.361C37.4725 367.481 36.5086 366.515 35.1832 364.946C33.7373 363.377 31.8095 361.204 29.8816 358.668C27.8333 356.133 26.1464 353.84 24.9415 352.029C23.6161 350.339 22.8932 349.252 23.0137 349.131Z" fill="#263238"/>
<path d="M72.5352 291.184C72.5352 291.184 72.5352 291.305 72.5352 291.667C72.5352 292.029 72.5352 292.392 72.5352 292.874C72.5352 294.082 72.4147 295.651 72.2942 297.583C72.0532 301.687 71.8122 307.482 71.3303 314.363C70.1254 321.365 66.5107 329.091 61.6911 336.697C58.1968 342.25 54.4616 347.321 51.3289 352.029C48.1961 356.737 45.4249 361.083 43.6175 364.946C41.6897 368.809 40.6053 372.069 40.0028 374.363C39.6413 375.57 39.5208 376.415 39.2799 377.019C39.1594 377.622 39.0389 377.984 39.0389 377.984C39.0389 377.984 39.0389 377.622 39.1594 377.019C39.2799 376.415 39.4003 375.449 39.7618 374.242C40.3643 371.948 41.3282 368.568 43.256 364.705C45.0634 360.842 47.7142 356.375 50.9674 351.667C54.1002 346.958 57.8354 341.888 61.2091 336.335C65.9082 328.85 69.5229 321.244 70.8483 314.242C71.3303 307.361 71.6917 301.567 72.0532 297.462C72.1737 295.53 72.2942 293.961 72.4147 292.754C72.4147 292.271 72.5352 291.909 72.5352 291.546C72.5352 291.305 72.5352 291.184 72.5352 291.184Z" fill="#263238"/>
<path d="M62.173 335.248C62.173 335.248 69.6434 317.381 60.2452 305.671C59.8837 305.309 59.2812 305.43 59.1607 305.912C58.3173 308.81 56.7509 317.985 62.173 335.248Z" fill="#55BC7E"/>
<path d="M60.8476 311.828C60.9681 311.828 61.2091 313.156 61.4501 315.208C61.691 317.26 62.0525 320.158 62.2935 323.417C62.5345 326.677 62.655 329.574 62.655 331.627C62.655 333.8 62.5345 335.007 62.414 335.007C62.2935 335.007 62.2935 333.679 62.0525 331.627C61.932 329.212 61.691 326.435 61.4501 323.417C61.2091 320.399 61.0886 317.502 60.8476 315.208C60.7271 313.156 60.7271 311.828 60.8476 311.828Z" fill="#263238"/>
<g opacity="0.3">
<g opacity="0.3">
<path opacity="0.3" d="M62.173 335.248C62.173 335.248 69.6434 317.381 60.2452 305.671C59.8837 305.309 59.2812 305.43 59.1607 305.912C58.3173 308.81 56.7509 317.985 62.173 335.248Z" fill="black"/>
</g>
</g>
<path d="M39.1593 378.347C39.1593 378.347 45.0634 359.876 34.8217 349.011C34.4602 348.649 33.8578 348.769 33.7373 349.373C33.2553 352.27 32.4119 361.566 39.1593 378.347Z" fill="#55BC7E"/>
<path d="M35.9061 355.168C36.0266 355.168 36.388 356.375 36.7495 358.548C37.2315 360.6 37.7134 363.498 38.1954 366.636C38.6774 369.775 39.0388 372.793 39.1593 374.846C39.2798 377.019 39.2798 378.226 39.2798 378.226C39.1593 378.226 39.0388 376.898 38.6773 374.846C38.3159 372.552 37.9544 369.775 37.4724 366.636C36.9905 363.618 36.629 360.842 36.2675 358.427C36.0266 356.496 35.7856 355.168 35.9061 355.168Z" fill="#263238"/>
<g opacity="0.3">
<g opacity="0.3">
<path opacity="0.3" d="M39.1593 378.347C39.1593 378.347 45.0634 359.876 34.8217 349.011C34.4602 348.649 33.8578 348.769 33.7373 349.373C33.2553 352.27 32.4119 361.566 39.1593 378.347Z" fill="black"/>
</g>
</g>
<path d="M71.5712 313.397C71.5712 313.397 87.3555 302.291 85.7891 287.442C85.7891 286.959 85.0661 286.717 84.7047 287.08C82.4154 289.011 76.2704 296.013 71.5712 313.397Z" fill="#55BC7E"/>
<g opacity="0.3">
<g opacity="0.3">
<path opacity="0.3" d="M71.5712 313.397C71.5712 313.397 87.3555 302.291 85.7891 287.442C85.7891 286.959 85.0661 286.717 84.7047 287.08C82.4154 289.011 76.2704 296.013 71.5712 313.397Z" fill="black"/>
</g>
</g>
<path d="M82.8973 292.995C83.0178 292.995 82.5358 294.202 81.5719 296.134C80.7285 298.066 79.4031 300.601 77.8367 303.498C76.2704 306.395 74.8245 308.81 73.7401 310.621C72.6556 312.432 71.8122 313.397 71.6917 313.397C71.5712 313.397 72.2942 312.19 73.2581 310.379C74.3425 308.327 75.7884 305.792 77.2343 303.136C78.6802 300.48 80.0056 297.945 81.2105 295.893C82.1744 293.961 82.8973 292.874 82.8973 292.995Z" fill="#263238"/>
<path d="M45.5453 359.997C45.5453 359.997 64.5828 356.979 69.7639 342.975C69.8844 342.492 69.5229 342.009 69.041 342.13C66.0287 342.975 57.3534 346.476 45.5453 359.997Z" fill="#55BC7E"/>
<g opacity="0.3">
<g opacity="0.3">
<path opacity="0.3" d="M45.5453 359.997C45.5453 359.997 64.5828 356.979 69.7639 342.975C69.8844 342.492 69.5229 342.009 69.041 342.13C66.0287 342.975 57.3534 346.476 45.5453 359.997Z" fill="black"/>
</g>
</g>
<path d="M64.7033 346.717C64.8238 346.838 63.7394 347.683 62.173 349.011C60.4861 350.339 58.1968 352.15 55.546 353.961C52.8952 355.892 50.4854 357.462 48.6781 358.548C46.8707 359.635 45.6658 360.238 45.6658 360.117C45.6658 359.997 46.6298 359.272 48.4371 358.065C50.365 356.737 52.6543 355.047 55.1846 353.357C57.7149 351.546 60.0042 349.977 61.932 348.528C63.6189 347.321 64.7033 346.596 64.7033 346.717Z" fill="#263238"/>
<path d="M27.3513 395.248L21.8087 432.793H56.5099L51.9313 395.248H27.3513Z" fill="#455A64"/>
<path d="M39.4003 407.199C47.1196 407.199 53.3772 407.037 53.3772 406.837C53.3772 406.637 47.1196 406.475 39.4003 406.475C31.6811 406.475 25.4235 406.637 25.4235 406.837C25.4235 407.037 31.6811 407.199 39.4003 407.199Z" fill="#263238"/>
<path d="M39.6413 410.217C47.6267 410.217 54.1002 410.055 54.1002 409.855C54.1002 409.655 47.6267 409.493 39.6413 409.493C31.6559 409.493 25.1825 409.655 25.1825 409.855C25.1825 410.055 31.6559 410.217 39.6413 410.217Z" fill="#263238"/>
</g>
<defs>
<clipPath id="clip0_7_2092">
<rect width="521" height="434" fill="white"/>
</clipPath>
</defs>
</svg>
