<svg width="62" height="62" viewBox="0 0 62 62" fill="none" xmlns="http://www.w3.org/2000/svg">
<circle cx="31" cy="31" r="31" fill="#F9FBFC"/>
<path d="M42.713 28.7222H40.3741C39.9981 28.7222 39.6884 28.5153 39.5444 28.1681C39.4005 27.8208 39.4736 27.4551 39.7389 27.1894L41.3926 25.5361C41.6356 25.2931 41.7694 24.9694 41.7694 24.6259C41.7694 24.2819 41.6356 23.9588 41.3926 23.7153L39.2847 21.6074C38.7986 21.1213 37.9509 21.1204 37.4639 21.6074L35.8106 23.2606C35.5449 23.5259 35.1782 23.6 34.8319 23.4556C34.4847 23.3116 34.2778 23.0019 34.2778 22.6259V20.287C34.2778 19.5773 33.7005 19 32.9907 19H30.0093C29.2995 19 28.7222 19.5773 28.7222 20.287V22.6259C28.7222 23.0019 28.5153 23.3116 28.1681 23.4556C27.8218 23.6005 27.4551 23.5259 27.1894 23.2606L25.5361 21.6074C25.0491 21.1204 24.2014 21.1213 23.7153 21.6074L21.6074 23.7153C21.3644 23.9583 21.2306 24.2819 21.2306 24.6259C21.2306 24.9694 21.3644 25.2926 21.6074 25.5361L23.2611 27.1894C23.5264 27.4551 23.5991 27.8208 23.4556 28.1681C23.312 28.5153 23.0019 28.7222 22.6259 28.7222H20.287C19.5773 28.7222 19 29.2995 19 30.0093V32.9903C19 33.7005 19.5773 34.2778 20.287 34.2778H22.6259C23.0019 34.2778 23.3116 34.4847 23.4556 34.8319C23.5995 35.1792 23.5264 35.5449 23.2611 35.8106L21.6074 37.4639C21.3644 37.7069 21.2306 38.0306 21.2306 38.3741C21.2306 38.7181 21.3644 39.0412 21.6074 39.2847L23.7153 41.3926C24.2019 41.8792 25.0491 41.8801 25.5361 41.3926L27.1894 39.7389C27.4551 39.4736 27.8204 39.4005 28.1681 39.5444C28.5153 39.6884 28.7222 39.9981 28.7222 40.3741V42.713C28.7222 43.4227 29.2995 44 30.0093 44H32.9903C33.7 44 34.2773 43.4227 34.2773 42.713V40.3741C34.2773 39.9981 34.4843 39.6884 34.8315 39.5444C35.1792 39.4 35.5444 39.4736 35.8102 39.7389L37.4634 41.3926C37.9505 41.8796 38.7981 41.8787 39.2843 41.3926L41.3921 39.2847C41.6352 39.0417 41.769 38.7181 41.769 38.3741C41.769 38.0306 41.6352 37.7074 41.3921 37.4639L39.7384 35.8106C39.4731 35.5449 39.4005 35.1792 39.544 34.8319C39.6875 34.4847 39.9981 34.2778 40.3741 34.2778H42.713C43.4227 34.2778 44 33.7005 44 32.9907V30.0093C44 29.2995 43.4227 28.7222 42.713 28.7222ZM43.0741 32.9907C43.0741 33.1898 42.912 33.3519 42.713 33.3519H40.3741C39.6222 33.3519 38.9764 33.7833 38.6889 34.4778C38.4009 35.1722 38.5523 35.9343 39.0843 36.4657L40.738 38.119C40.8792 38.2602 40.8792 38.4894 40.738 38.6301L38.6301 40.738C38.4894 40.8787 38.2602 40.8796 38.119 40.738L36.4657 39.0843C35.9338 38.5523 35.1722 38.4019 34.4778 38.6889C33.7833 38.9764 33.3519 39.6222 33.3519 40.3741V42.713C33.3519 42.912 33.1898 43.0741 32.9907 43.0741H30.0093C29.8102 43.0741 29.6481 42.912 29.6481 42.713V40.3741C29.6481 39.6222 29.2167 38.9764 28.5222 38.6889C28.2894 38.5921 28.0495 38.5449 27.8125 38.5449C27.3431 38.5449 26.888 38.7301 26.5343 39.0838L24.881 40.7375C24.7394 40.8792 24.5102 40.8782 24.3699 40.7375L22.262 38.6296C22.1208 38.4884 22.1208 38.2593 22.262 38.1185L23.9157 36.4653C24.4472 35.9338 24.5991 35.1718 24.3111 34.4773C24.0236 33.7833 23.3778 33.3519 22.6259 33.3519H20.287C20.088 33.3519 19.9259 33.1898 19.9259 32.9907V30.0093C19.9259 29.8102 20.088 29.6481 20.287 29.6481H22.6259C23.3778 29.6481 24.0236 29.2167 24.3111 28.5222C24.5991 27.8278 24.4477 27.0657 23.9157 26.5343L22.262 24.881C22.1208 24.7398 22.1208 24.5106 22.262 24.3699L24.3699 22.262C24.5106 22.1208 24.7398 22.1208 24.881 22.262L26.5343 23.9153C27.0653 24.4463 27.8269 24.5986 28.5222 24.3106C29.2167 24.0236 29.6481 23.3778 29.6481 22.6259V20.287C29.6481 20.088 29.8102 19.9259 30.0093 19.9259H32.9903C33.1898 19.9259 33.3519 20.088 33.3519 20.287V22.6259C33.3519 23.3778 33.7833 24.0236 34.4778 24.3111C35.1731 24.5991 35.9343 24.4472 36.4657 23.9157L38.119 22.2625C38.2606 22.1213 38.4898 22.1213 38.6301 22.2625L40.738 24.3704C40.8792 24.5116 40.8792 24.7407 40.738 24.8815L39.0843 26.5347C38.5528 27.0662 38.4009 27.8282 38.6889 28.5227C38.9764 29.2171 39.6222 29.6486 40.3741 29.6486H42.713C42.912 29.6481 43.0741 29.8102 43.0741 30.0093V32.9907Z" fill="#55BC7E"/>
<path d="M31.5 27.3333C29.2023 27.3333 27.3333 29.2022 27.3333 31.4999C27.3333 33.7976 29.2023 35.6666 31.5 35.6666C33.7977 35.6666 35.6667 33.7976 35.6667 31.4999C35.6667 29.2022 33.7977 27.3333 31.5 27.3333ZM31.5 34.7407C29.7134 34.7407 28.2593 33.2865 28.2593 31.4999C28.2593 29.7133 29.7134 28.2592 31.5 28.2592C33.2866 28.2592 34.7408 29.7133 34.7408 31.4999C34.7408 33.2865 33.2866 34.7407 31.5 34.7407Z" fill="#55BC7E"/>
</svg>
