<svg width="62" height="62" viewBox="0 0 62 62" fill="none" xmlns="http://www.w3.org/2000/svg">
<circle cx="31" cy="31" r="31" fill="#F9FBFC"/>
<path d="M45.3105 27.0284C41.4234 23.1408 36.2461 21 30.7339 21C25.2218 21 20.045 23.1402 16.1574 27.0284C15.9475 27.2383 15.9475 27.5775 16.1574 27.7873C16.3672 27.9971 16.7064 27.9971 16.9162 27.7873C20.601 24.102 25.5084 22.0728 30.7339 22.0728C35.9595 22.0728 40.8668 24.102 44.5516 27.7868C44.6563 27.8914 44.7937 27.944 44.9311 27.944C45.0685 27.944 45.2058 27.8914 45.3105 27.7868C45.5203 27.5775 45.5203 27.2377 45.3105 27.0284Z" fill="#55BC7E"/>
<path d="M19.312 30.1826C19.1021 30.3925 19.1021 30.7316 19.312 30.9415C19.4166 31.0461 19.554 31.0987 19.6914 31.0987C19.8288 31.0987 19.9662 31.0461 20.0708 30.9415C25.9501 25.0617 35.5168 25.0617 41.3966 30.9415C41.6064 31.1513 41.9456 31.1513 42.1554 30.9415C42.3653 30.7316 42.3653 30.3925 42.1554 30.1826C35.8581 23.8853 25.6104 23.8842 19.312 30.1826Z" fill="#55BC7E"/>
<path d="M30.7339 29.9185C27.6078 29.9185 24.6722 31.1329 22.467 33.3376C22.2572 33.5474 22.2572 33.8866 22.467 34.0965C22.6769 34.3063 23.016 34.3063 23.2259 34.0965C25.2282 32.0947 27.8944 30.9918 30.7339 30.9918C33.5735 30.9918 36.2396 32.0947 38.242 34.0965C38.3466 34.2011 38.484 34.2537 38.6214 34.2537C38.7588 34.2537 38.8962 34.2011 39.0008 34.0965C39.2107 33.8866 39.2107 33.5474 39.0008 33.3376C36.7962 31.1329 33.86 29.9185 30.7339 29.9185Z" fill="#55BC7E"/>
<path d="M30.7339 34.9673C28.7955 34.9673 27.2182 36.5446 27.2182 38.4836C27.2182 40.4226 28.7955 41.9998 30.7339 41.9998C32.6729 41.9998 34.2502 40.4226 34.2502 38.4836C34.2502 36.5446 32.6729 34.9673 30.7339 34.9673ZM30.7339 40.926C29.3869 40.926 28.2915 39.8301 28.2915 38.483C28.2915 37.136 29.3874 36.0401 30.7339 36.0401C32.0804 36.0401 33.1768 37.136 33.1768 38.483C33.1768 39.8301 32.081 40.926 30.7339 40.926Z" fill="#55BC7E"/>
</svg>
