<svg width="62" height="62" viewBox="0 0 62 62" fill="none" xmlns="http://www.w3.org/2000/svg">
<circle cx="31" cy="31" r="31" fill="#F9FBFC"/>
<path d="M32.2239 34.771C32.6852 34.7351 33.1057 34.4998 33.3787 34.1245L37.5279 28.3884C37.6551 28.2125 37.636 27.9697 37.4818 27.8154C37.3276 27.6617 37.0847 27.6426 36.9088 27.7694L31.1719 31.9198C30.7978 32.1919 30.5625 32.6125 30.5266 33.0738C30.4907 33.5351 30.6578 33.9867 30.9844 34.3133C31.2818 34.6111 31.6828 34.7759 32.0998 34.7759C32.141 34.7759 32.1822 34.7741 32.2239 34.771ZM31.4103 33.1429C31.4258 32.9404 31.5295 32.7556 31.6925 32.6369L35.1921 30.1052L32.6613 33.6038C32.5416 33.7682 32.3568 33.8715 32.1543 33.8874C31.9527 33.9007 31.7546 33.8307 31.6106 33.6867C31.4679 33.5435 31.3943 33.345 31.4103 33.1429Z" fill="#55BC7E"/>
<path d="M42.1503 26.6062C42.1459 26.5969 42.1459 26.5871 42.141 26.5778C42.1357 26.569 42.1273 26.5641 42.1215 26.5557C41.6735 25.7873 41.1435 25.0725 40.5417 24.4246L41.4936 23.4732L42.1202 24.0998L44 22.2195L42.1202 20.3397L40.2399 22.2195L40.867 22.8466L39.9151 23.798C39.2672 23.1962 38.5529 22.6658 37.784 22.2177C37.7756 22.212 37.7707 22.2036 37.7618 22.1982C37.7525 22.1929 37.7428 22.1934 37.7335 22.1885C36.3628 21.3988 34.8229 20.8728 33.1811 20.68V20.1522H33.8458C34.4569 20.1522 34.9536 19.6555 34.9536 19.0444C34.9536 18.4333 34.4564 17.9365 33.8453 17.9365H29.857C29.2459 17.9365 28.7492 18.4333 28.7492 19.0444C28.7492 19.6555 29.2459 20.1522 29.857 20.1522H30.5218V20.6645C30.0432 20.7155 29.5654 20.7935 29.0931 20.9016C28.8546 20.9561 28.7053 21.1941 28.7603 21.4325C28.8148 21.6709 29.0527 21.8207 29.2911 21.7653C29.6988 21.6718 30.1105 21.6013 30.5231 21.5539L30.9986 21.5171C31.1439 21.5061 31.2778 21.4981 31.408 21.4919V22.368C31.408 22.613 31.6061 22.8111 31.8512 22.8111C32.0962 22.8111 32.2943 22.613 32.2943 22.368V21.495C33.961 21.5716 35.5315 22.0192 36.9279 22.7557L36.4909 23.5122C36.3686 23.7244 36.4413 23.9952 36.6531 24.1175C36.7227 24.1578 36.7989 24.1769 36.8742 24.1769C37.0276 24.1769 37.1765 24.0976 37.2584 23.9553L37.694 23.2006C39.0806 24.0803 40.2585 25.2582 41.1382 26.6448L40.3835 27.0804C40.1721 27.2027 40.0994 27.4734 40.2222 27.6857C40.3046 27.828 40.4531 27.9073 40.6064 27.9073C40.6817 27.9073 40.7579 27.8882 40.8275 27.8479L41.584 27.411C42.3307 28.8272 42.7796 30.4235 42.8465 32.1167H41.9713C41.7262 32.1167 41.5281 32.3148 41.5281 32.5598C41.5281 32.8049 41.7262 33.003 41.9713 33.003H42.8465C42.7796 34.6962 42.3307 36.2925 41.584 37.7087L40.8275 37.2718C40.6157 37.1495 40.3445 37.2213 40.2222 37.434C40.0999 37.6463 40.1726 37.917 40.3844 38.0393L41.1391 38.4749C40.2594 39.8615 39.0815 41.0394 37.6949 41.9191L37.2593 41.1644C37.1366 40.9517 36.8649 40.8794 36.654 41.0022C36.4417 41.1245 36.369 41.3957 36.4918 41.6075L36.9287 42.364C35.5324 43.1005 33.9619 43.5481 32.2952 43.6247V42.7526C32.2952 42.5076 32.0971 42.3095 31.8521 42.3095C31.607 42.3095 31.4089 42.5076 31.4089 42.7526V43.6283C30.7012 43.6039 29.9913 43.5153 29.2925 43.3549C29.0541 43.2977 28.8161 43.4492 28.7616 43.6877C28.7066 43.9261 28.856 44.164 29.0944 44.2185C29.9789 44.4224 30.8825 44.5252 31.779 44.5252C31.8007 44.5252 31.8215 44.5239 31.8432 44.5234C31.8463 44.5234 31.8485 44.5252 31.8512 44.5252C31.8547 44.5252 31.8578 44.523 31.8614 44.523C33.9916 44.5084 35.9902 43.9332 37.7193 42.9396C37.733 42.9334 37.7477 42.9303 37.761 42.9223C37.7698 42.917 37.7747 42.9086 37.7831 42.9028C39.573 41.8597 41.0686 40.3658 42.114 38.5773C42.1224 38.5653 42.133 38.556 42.1406 38.5427C42.1459 38.5334 42.1454 38.5237 42.1499 38.5144C43.162 36.7595 43.7439 34.7273 43.7439 32.5603C43.7439 30.3933 43.162 28.3611 42.1503 26.6062ZM42.1197 21.5929L42.7463 22.2195L42.1197 22.8466L41.4927 22.2195L42.1197 21.5929ZM31.408 20.6047V19.266H29.857C29.7352 19.266 29.6355 19.1662 29.6355 19.0444C29.6355 18.9225 29.7352 18.8228 29.857 18.8228H33.8453C33.9672 18.8228 34.0669 18.9225 34.0669 19.0444C34.0669 19.1662 33.9672 19.266 33.8453 19.266H32.2943V20.6047C32.1401 20.5985 31.993 20.5954 31.8512 20.5954C31.8388 20.5954 31.8246 20.5963 31.8122 20.5963C31.8011 20.5963 31.79 20.5954 31.779 20.5954C31.7063 20.5954 31.6336 20.6003 31.5609 20.6016C31.5095 20.6029 31.4612 20.6025 31.408 20.6047Z" fill="#55BC7E"/>
<path d="M27.8629 24.1406H25.6472C25.4021 24.1406 25.204 24.3387 25.204 24.5838C25.204 24.8288 25.4021 25.0269 25.6472 25.0269H27.8629C28.108 25.0269 28.306 24.8288 28.306 24.5838C28.306 24.3387 28.108 24.1406 27.8629 24.1406Z" fill="#55BC7E"/>
<path d="M27.8629 27.2424H23.4314C23.1864 27.2424 22.9883 27.4405 22.9883 27.6856C22.9883 27.9306 23.1864 28.1287 23.4314 28.1287H27.8629C28.1079 28.1287 28.306 27.9306 28.306 27.6856C28.306 27.4405 28.1079 27.2424 27.8629 27.2424Z" fill="#55BC7E"/>
<path d="M27.8629 30.3445H21.2157C20.9707 30.3445 20.7726 30.5426 20.7726 30.7876C20.7726 31.0327 20.9707 31.2308 21.2157 31.2308H27.8629C28.108 31.2308 28.306 31.0327 28.306 30.7876C28.306 30.5426 28.108 30.3445 27.8629 30.3445Z" fill="#55BC7E"/>
<path d="M27.8629 33.4465H19.4431C19.1981 33.4465 19 33.6446 19 33.8897C19 34.1347 19.1981 34.3328 19.4431 34.3328H27.8629C28.108 34.3328 28.306 34.1347 28.306 33.8897C28.306 33.6446 28.108 33.4465 27.8629 33.4465Z" fill="#55BC7E"/>
<path d="M27.8629 36.5483H22.102C21.857 36.5483 21.6589 36.7464 21.6589 36.9915C21.6589 37.2365 21.857 37.4346 22.102 37.4346H27.8629C28.1079 37.4346 28.306 37.2365 28.306 36.9915C28.306 36.7464 28.1079 36.5483 27.8629 36.5483Z" fill="#55BC7E"/>
<path d="M27.8629 39.6506H24.7609C24.5158 39.6506 24.3177 39.8487 24.3177 40.0938C24.3177 40.3388 24.5158 40.5369 24.7609 40.5369H27.8629C28.1079 40.5369 28.306 40.3388 28.306 40.0938C28.306 39.8487 28.1079 39.6506 27.8629 39.6506Z" fill="#55BC7E"/>
</svg>
