<svg width="62" height="62" viewBox="0 0 62 62" fill="none" xmlns="http://www.w3.org/2000/svg">
<circle cx="31" cy="31" r="31" fill="#F9FBFC"/>
<path d="M37.25 29.4167H26.8333C26.6033 29.4167 26.4167 29.603 26.4167 29.8334C26.4167 30.0638 26.6033 30.2501 26.8333 30.2501H37.25C37.48 30.2501 37.6667 30.0638 37.6667 29.8334C37.6667 29.603 37.48 29.4167 37.25 29.4167Z" fill="#55BC7E"/>
<path d="M26.8333 26.9168H31C31.23 26.9168 31.4167 26.7306 31.4167 26.5002C31.4167 26.2697 31.23 26.0835 31 26.0835H26.8333C26.6033 26.0835 26.4167 26.2697 26.4167 26.5002C26.4167 26.7306 26.6033 26.9168 26.8333 26.9168Z" fill="#55BC7E"/>
<path d="M37.25 32.75H26.8333C26.6033 32.75 26.4167 32.9362 26.4167 33.1667C26.4167 33.3971 26.6033 33.5833 26.8333 33.5833H37.25C37.48 33.5833 37.6667 33.3971 37.6667 33.1667C37.6667 32.9362 37.48 32.75 37.25 32.75Z" fill="#55BC7E"/>
<path d="M37.25 36.0833H26.8333C26.6033 36.0833 26.4167 36.2695 26.4167 36.4999C26.4167 36.7303 26.6033 36.9166 26.8333 36.9166H37.25C37.48 36.9166 37.6667 36.7303 37.6667 36.4999C37.6667 36.2695 37.48 36.0833 37.25 36.0833Z" fill="#55BC7E"/>
<path d="M37.25 39.4167H26.8333C26.6033 39.4167 26.4167 39.603 26.4167 39.8334C26.4167 40.0638 26.6033 40.2501 26.8333 40.2501H37.25C37.48 40.2501 37.6667 40.0638 37.6667 39.8334C37.6667 39.603 37.48 39.4167 37.25 39.4167Z" fill="#55BC7E"/>
<path d="M38.9167 25.0775V19H21V41.9167H23.0833V44H41V27.1608L38.9167 25.0775ZM35.1667 22.5058L38.9167 26.2558L39.5775 26.9167H35.1667V22.5058ZM21.8333 41.0833V19.8333H38.0833V24.2442L34.9225 21.0833H23.0833V41.0833H21.8333ZM23.9167 43.1667V41.9167V21.9167H34.3333V27.75H40.1667V43.1667H23.9167Z" fill="#55BC7E"/>
</svg>
