<svg width="62" height="62" viewBox="0 0 62 62" fill="none" xmlns="http://www.w3.org/2000/svg">
<circle cx="31" cy="31" r="31" fill="#F9FBFC"/>
<path d="M40.84 19.1174C40.7384 19.028 40.6042 18.9874 40.4687 19.0034L25.8805 20.8996C25.6461 20.9303 25.4706 21.1303 25.4706 21.3681V24.2125V26.2036V38.2035C24.6113 37.1659 23.2461 36.4908 21.7059 36.4908C19.1111 36.4908 17 38.3992 17 40.7454C17 43.0916 19.1111 45 21.7059 45C24.3007 45 26.4118 43.0916 26.4118 40.7454C26.4118 40.6357 26.4028 40.5279 26.3934 40.4206C26.3995 40.3899 26.4118 40.362 26.4118 40.3299V26.6192L40.0588 24.845V33.4757C39.1995 32.4385 37.8344 31.7635 36.2941 31.7635C33.6993 31.7635 31.5882 33.6719 31.5882 36.0181C31.5882 38.3642 33.6993 40.2727 36.2941 40.2727C38.8654 40.2727 40.9591 38.3978 40.9967 36.0809C40.9967 36.0748 41 36.0696 41 36.0634V24.307V22.3164V19.4724C41 19.3362 40.9416 19.2067 40.84 19.1174ZM21.7059 44.0545C19.6301 44.0545 17.9412 42.5697 17.9412 40.7454C17.9412 38.9211 19.6301 37.4363 21.7059 37.4363C23.7816 37.4363 25.4706 38.9211 25.4706 40.7454C25.4706 42.5697 23.7816 44.0545 21.7059 44.0545ZM36.2941 39.3272C34.2184 39.3272 32.5294 37.8423 32.5294 36.0181C32.5294 34.1938 34.2184 32.7089 36.2941 32.7089C38.3699 32.7089 40.0588 34.1938 40.0588 36.0181C40.0588 37.8423 38.3699 39.3272 36.2941 39.3272ZM26.4118 25.6657V24.2125V21.7836L40.0588 20.0099V22.3164V23.8915L26.4118 25.6657Z" fill="#55BC7E"/>
</svg>
