<svg width="62" height="62" viewBox="0 0 62 62" fill="none" xmlns="http://www.w3.org/2000/svg">
<circle cx="31" cy="31" r="31" fill="#F9FBFC"/>
<path d="M30.574 21.2961C25.5399 21.2961 21.4444 25.3916 21.4444 30.4258C21.4444 34.2452 23.8025 37.6285 27.3518 38.9647V43.8517C27.3518 44.1487 27.5919 44.3887 27.8889 44.3887H28.4259V45.4628C28.4259 45.7598 28.6659 45.9998 28.9629 45.9998H32.1851C32.4821 45.9998 32.7222 45.7598 32.7222 45.4628V44.3887H33.2592C33.5562 44.3887 33.7963 44.1487 33.7963 43.8517V38.9647C37.3455 37.6285 39.7037 34.2452 39.7037 30.4258C39.7037 25.3916 35.6082 21.2961 30.574 21.2961ZM32.1851 43.3147C31.8882 43.3147 31.6481 43.5547 31.6481 43.8517V44.9258H29.5V43.8517C29.5 43.5547 29.2599 43.3147 28.9629 43.3147H28.4259V40.6295H32.7222V43.3147H32.1851ZM33.0917 38.0742C32.8709 38.1467 32.7222 38.353 32.7222 38.5844V39.5554H28.4259V38.5844C28.4259 38.3524 28.2771 38.1467 28.0564 38.0742C24.7445 36.9851 22.5185 33.9111 22.5185 30.4258C22.5185 25.9839 26.1322 22.3702 30.574 22.3702C35.0159 22.3702 38.6296 25.9839 38.6296 30.4258C38.6296 33.9111 36.4036 36.9851 33.0917 38.0742Z" fill="#55BC7E"/>
<path d="M30.5741 20.2222C30.871 20.2222 31.1111 19.9822 31.1111 19.6852V17.537C31.1111 17.2401 30.871 17 30.5741 17C30.2771 17 30.037 17.2401 30.037 17.537V19.6852C30.037 19.9822 30.2771 20.2222 30.5741 20.2222Z" fill="#55BC7E"/>
<path d="M43.4629 29.8889H41.3148C41.0178 29.8889 40.7778 30.129 40.7778 30.426C40.7778 30.7229 41.0178 30.963 41.3148 30.963H43.4629C43.7599 30.963 44 30.7229 44 30.426C44 30.129 43.7599 29.8889 43.4629 29.8889Z" fill="#55BC7E"/>
<path d="M19.8333 29.8889H17.6852C17.3882 29.8889 17.1481 30.129 17.1481 30.426C17.1481 30.7229 17.3882 30.963 17.6852 30.963H19.8333C20.1303 30.963 20.3704 30.7229 20.3704 30.426C20.3704 30.129 20.1303 29.8889 19.8333 29.8889Z" fill="#55BC7E"/>
<path d="M39.3084 20.9324L37.7897 22.4512C37.5797 22.6612 37.5797 23.0006 37.7897 23.2105C37.8944 23.3153 38.0319 23.3679 38.1694 23.3679C38.3069 23.3679 38.4444 23.3153 38.5491 23.2105L40.0678 21.6918C40.2778 21.4818 40.2778 21.1424 40.0678 20.9324C39.8578 20.7224 39.5179 20.723 39.3084 20.9324Z" fill="#55BC7E"/>
<path d="M22.5991 37.6416L21.0803 39.1604C20.8703 39.3703 20.8703 39.7098 21.0803 39.9197C21.185 40.0245 21.3225 40.0771 21.46 40.0771C21.5975 40.0771 21.735 40.0245 21.8397 39.9197L23.3584 38.401C23.5684 38.191 23.5684 37.8516 23.3584 37.6416C23.1485 37.4316 22.809 37.4316 22.5991 37.6416Z" fill="#55BC7E"/>
<path d="M38.5491 37.6416C38.3391 37.4316 37.9997 37.4316 37.7897 37.6416C37.5797 37.8516 37.5797 38.191 37.7897 38.401L39.3084 39.9197C39.4132 40.0245 39.5506 40.0771 39.6881 40.0771C39.8256 40.0771 39.9631 40.0245 40.0678 39.9197C40.2778 39.7098 40.2778 39.3703 40.0678 39.1604L38.5491 37.6416Z" fill="#55BC7E"/>
<path d="M22.5991 23.2105C22.7038 23.3152 22.8413 23.3679 22.9787 23.3679C23.1162 23.3679 23.2537 23.3152 23.3584 23.2105C23.5684 23.0005 23.5684 22.6611 23.3584 22.4511L21.8397 20.9324C21.6297 20.7224 21.2903 20.7224 21.0803 20.9324C20.8703 21.1424 20.8703 21.4818 21.0803 21.6918L22.5991 23.2105Z" fill="#55BC7E"/>
<path d="M30.5741 23.9812C27.0205 23.9812 24.1296 26.8721 24.1296 30.4256C24.1296 30.7226 24.3697 30.9627 24.6667 30.9627C24.9636 30.9627 25.2037 30.7226 25.2037 30.4256C25.2037 27.4644 27.6128 25.0553 30.5741 25.0553C30.871 25.0553 31.1111 24.8152 31.1111 24.5182C31.1111 24.2213 30.871 23.9812 30.5741 23.9812Z" fill="#55BC7E"/>
</svg>
