<svg width="62" height="62" viewBox="0 0 62 62" fill="none" xmlns="http://www.w3.org/2000/svg">
<circle cx="31" cy="31" r="31" fill="#F9FBFC"/>
<path d="M41.9225 37.9354L37.9421 35.9382C37.5667 35.7496 37.3333 35.3707 37.3333 34.9492V33.5353C37.4287 33.4182 37.5292 33.2848 37.6329 33.1376C38.1492 32.4058 38.5629 31.5912 38.8638 30.7126C39.4517 30.442 39.8333 29.8586 39.8333 29.2V27.5273C39.8333 27.1246 39.6833 26.7344 39.4167 26.4295V24.2052C39.44 23.9752 39.5317 22.6061 38.545 21.4766C37.6892 20.4968 36.3004 20 34.4167 20C32.5329 20 31.1442 20.4968 30.2883 21.4762C29.6904 22.1607 29.4892 22.9319 29.4283 23.4855C28.7142 23.115 27.8725 22.9273 26.9167 22.9273C22.5879 22.9273 22.3358 26.6303 22.3333 26.6909V28.6058C22.0633 28.901 21.9167 29.2418 21.9167 29.5801V31.0245C21.9167 31.4757 22.1179 31.8964 22.4629 32.1808C22.8067 33.4813 23.6521 34.4641 23.9812 34.8091V35.9561C23.9812 36.2853 23.8029 36.5872 23.4933 36.757L20.7212 38.502C19.6596 39.0833 19 40.1986 19 41.4122V43H24.8333H25.6667H44V41.3093C44 39.8716 43.2037 38.5786 41.9225 37.9354ZM24.8333 41.2277V42.1636H19.8333V41.4122C19.8333 40.5047 20.3267 39.6709 21.1421 39.2238L23.9138 37.4787C24.4692 37.1747 24.8142 36.5918 24.8142 35.9561V34.4545L24.6817 34.3303C24.6708 34.3202 23.5637 33.2706 23.2367 31.84L23.1987 31.6744L23.0562 31.5824C22.8646 31.4578 22.75 31.2491 22.75 31.0245V29.5801C22.75 29.4296 22.8521 29.2506 23.0296 29.0892L23.1667 28.965L23.1658 26.7152C23.1733 26.5951 23.3904 23.7636 26.9167 23.7636C27.9137 23.7636 28.7533 23.9949 29.4167 24.4511V26.4295C29.15 26.7344 29 27.1246 29 27.5273V29.2C29 29.3271 29.0146 29.4522 29.0421 29.5734C29.0533 29.6219 29.0758 29.6663 29.0912 29.7131C29.1142 29.7834 29.1325 29.8557 29.1646 29.9222C29.165 29.923 29.1654 29.9235 29.1658 29.9243C29.2725 30.1451 29.4279 30.3425 29.6237 30.5001C29.6258 30.5081 29.6283 30.5152 29.6304 30.5227C29.6554 30.6185 29.6817 30.7138 29.71 30.8071L29.7437 30.9162C29.7496 30.9355 29.7567 30.9551 29.7629 30.9743C29.7775 31.0195 29.7917 31.0643 29.8067 31.1086C29.8317 31.1818 29.8579 31.2575 29.8883 31.3398C29.9012 31.3741 29.9154 31.4051 29.9288 31.4389C29.9629 31.5263 29.9971 31.6108 30.0329 31.6945C30.0417 31.7145 30.0492 31.7363 30.0579 31.7559L30.0812 31.8086C30.0921 31.8329 30.1033 31.8546 30.1142 31.8785C30.155 31.9679 30.195 32.0545 30.2367 32.1381C30.2433 32.1515 30.2496 32.1662 30.2562 32.1795C30.2825 32.2318 30.3088 32.2812 30.335 32.3313C30.38 32.4175 30.4242 32.4986 30.4683 32.5772C30.49 32.6157 30.5112 32.6533 30.5325 32.6897C30.5925 32.7926 30.6496 32.8871 30.705 32.9749C30.7171 32.9937 30.7287 33.0134 30.7404 33.0314C30.8412 33.1882 30.9287 33.3153 31.0012 33.4144C31.0204 33.4408 31.0371 33.4634 31.0533 33.4855C31.0625 33.4977 31.075 33.5152 31.0829 33.5261V34.9099C31.0829 35.3147 30.8629 35.686 30.5092 35.88L29.4067 36.4835L29.2146 36.4663L29.1362 36.6315L26.7921 37.9149C25.5837 38.5773 24.8333 39.8461 24.8333 41.2277ZM43.1667 42.1636H25.6667V41.2277C25.6667 40.1526 26.2508 39.1644 27.1912 38.6501L30.9083 36.6152C31.5304 36.2744 31.9167 35.6208 31.9167 34.9103V33.23V33.2296L31.8358 33.1326L31.82 33.1138C31.8192 33.1125 31.7933 33.0811 31.7513 33.0259C31.7487 33.0226 31.7462 33.0193 31.7433 33.0159C31.7212 32.9871 31.6954 32.9523 31.6658 32.9109C31.6654 32.9101 31.665 32.9097 31.6646 32.9089C31.6025 32.8223 31.5246 32.7098 31.4379 32.5743C31.4358 32.5714 31.4342 32.568 31.4321 32.5651C31.3912 32.5011 31.3479 32.4313 31.3037 32.3573C31.3004 32.3518 31.2971 32.3464 31.2937 32.3405C31.1996 32.1821 31.0996 32.0027 31 31.804C31 31.804 30.9996 31.8036 30.9996 31.8032C30.9467 31.6965 30.8937 31.5845 30.8421 31.4678C30.835 31.4515 30.8275 31.4356 30.8204 31.4193C30.7975 31.367 30.7746 31.3122 30.7512 31.2558C30.7429 31.2353 30.7346 31.214 30.7262 31.1931C30.7046 31.1383 30.6825 31.0831 30.6592 31.0199C30.6167 30.9062 30.5767 30.7874 30.5383 30.6649L30.5154 30.5905C30.5129 30.5821 30.51 30.5737 30.5075 30.5649C30.4683 30.4328 30.4308 30.2977 30.3992 30.1589L30.3612 29.9933L30.2192 29.9013C29.9775 29.7449 29.8333 29.4827 29.8333 29.2V27.5273C29.8333 27.2927 29.9325 27.074 30.1125 26.9105L30.25 26.7863V24.1818V24.0338L30.2387 24.025C30.2246 23.7231 30.2425 22.7976 30.915 22.0278C31.6054 21.237 32.7837 20.8364 34.4167 20.8364C36.0437 20.8364 37.2196 21.2341 37.9108 22.019C38.7221 22.9394 38.5879 24.117 38.5871 24.127L38.5833 26.7863L38.7208 26.9109C38.9008 27.074 39 27.2927 39 27.5273V29.2C39 29.5651 38.7617 29.8846 38.4075 29.9941L38.2 30.0581L38.1333 30.2651C37.8546 31.1353 37.4575 31.9391 36.9525 32.6542C36.8287 32.8302 36.7083 32.9862 36.6038 33.1054L36.5 33.2242V34.9492C36.5 35.6893 36.9096 36.3547 37.5692 36.6859L41.5496 38.6831C42.5471 39.1837 43.1667 40.1898 43.1667 41.3093V42.1636Z" fill="#55BC7E"/>
</svg>
