<svg width="179" height="22" viewBox="0 0 179 22" fill="none" xmlns="http://www.w3.org/2000/svg">
<path d="M4.46434 17.67H11.3643V21H0.264336V0.0599996H4.46434V17.67ZM12.9539 12.63C12.9539 10.95 13.2839 9.46 13.9439 8.16C14.6239 6.86 15.5339 5.86 16.6739 5.16C17.8339 4.46 19.1239 4.11 20.5439 4.11C21.7839 4.11 22.8639 4.36 23.7839 4.86C24.7239 5.36 25.4739 5.99 26.0339 6.75V4.38H30.2639V21H26.0339V18.57C25.4939 19.35 24.7439 20 23.7839 20.52C22.8439 21.02 21.7539 21.27 20.5139 21.27C19.1139 21.27 17.8339 20.91 16.6739 20.19C15.5339 19.47 14.6239 18.46 13.9439 17.16C13.2839 15.84 12.9539 14.33 12.9539 12.63ZM26.0339 12.69C26.0339 11.67 25.8339 10.8 25.4339 10.08C25.0339 9.34 24.4939 8.78 23.8139 8.4C23.1339 8 22.4039 7.8 21.6239 7.8C20.8439 7.8 20.1239 7.99 19.4639 8.37C18.8039 8.75 18.2639 9.31 17.8439 10.05C17.4439 10.77 17.2439 11.63 17.2439 12.63C17.2439 13.63 17.4439 14.51 17.8439 15.27C18.2639 16.01 18.8039 16.58 19.4639 16.98C20.1439 17.38 20.8639 17.58 21.6239 17.58C22.4039 17.58 23.1339 17.39 23.8139 17.01C24.4939 16.61 25.0339 16.05 25.4339 15.33C25.8339 14.59 26.0339 13.71 26.0339 12.69ZM39.2559 7.83V15.87C39.2559 16.43 39.3859 16.84 39.6459 17.1C39.9259 17.34 40.3859 17.46 41.0259 17.46H42.9759V21H40.3359C36.7959 21 35.0259 19.28 35.0259 15.84V7.83H33.0459V4.38H35.0259V0.269999H39.2559V4.38H42.9759V7.83H39.2559ZM61.4468 12.33C61.4468 12.93 61.4068 13.47 61.3268 13.95H49.1768C49.2768 15.15 49.6968 16.09 50.4368 16.77C51.1768 17.45 52.0868 17.79 53.1668 17.79C54.7268 17.79 55.8368 17.12 56.4968 15.78H61.0268C60.5468 17.38 59.6268 18.7 58.2668 19.74C56.9068 20.76 55.2368 21.27 53.2568 21.27C51.6568 21.27 50.2168 20.92 48.9368 20.22C47.6768 19.5 46.6868 18.49 45.9668 17.19C45.2668 15.89 44.9168 14.39 44.9168 12.69C44.9168 10.97 45.2668 9.46 45.9668 8.16C46.6668 6.86 47.6468 5.86 48.9068 5.16C50.1668 4.46 51.6168 4.11 53.2568 4.11C54.8368 4.11 56.2468 4.45 57.4868 5.13C58.7468 5.81 59.7168 6.78 60.3968 8.04C61.0968 9.28 61.4468 10.71 61.4468 12.33ZM57.0968 11.13C57.0768 10.05 56.6868 9.19 55.9268 8.55C55.1668 7.89 54.2368 7.56 53.1368 7.56C52.0968 7.56 51.2168 7.88 50.4968 8.52C49.7968 9.14 49.3668 10.01 49.2068 11.13H57.0968ZM70.8724 21.27C69.5124 21.27 68.2924 21.03 67.2124 20.55C66.1324 20.05 65.2724 19.38 64.6324 18.54C64.0124 17.7 63.6724 16.77 63.6124 15.75H67.8424C67.9224 16.39 68.2324 16.92 68.7724 17.34C69.3324 17.76 70.0224 17.97 70.8424 17.97C71.6424 17.97 72.2624 17.81 72.7024 17.49C73.1624 17.17 73.3924 16.76 73.3924 16.26C73.3924 15.72 73.1124 15.32 72.5524 15.06C72.0124 14.78 71.1424 14.48 69.9424 14.16C68.7024 13.86 67.6824 13.55 66.8824 13.23C66.1024 12.91 65.4224 12.42 64.8424 11.76C64.2824 11.1 64.0024 10.21 64.0024 9.09C64.0024 8.17 64.2624 7.33 64.7824 6.57C65.3224 5.81 66.0824 5.21 67.0624 4.77C68.0624 4.33 69.2324 4.11 70.5724 4.11C72.5524 4.11 74.1324 4.61 75.3124 5.61C76.4924 6.59 77.1424 7.92 77.2624 9.6H73.2424C73.1824 8.94 72.9024 8.42 72.4024 8.04C71.9224 7.64 71.2724 7.44 70.4524 7.44C69.6924 7.44 69.1024 7.58 68.6824 7.86C68.2824 8.14 68.0824 8.53 68.0824 9.03C68.0824 9.59 68.3624 10.02 68.9224 10.32C69.4824 10.6 70.3524 10.89 71.5324 11.19C72.7324 11.49 73.7224 11.8 74.5024 12.12C75.2824 12.44 75.9524 12.94 76.5124 13.62C77.0924 14.28 77.3924 15.16 77.4124 16.26C77.4124 17.22 77.1424 18.08 76.6024 18.84C76.0824 19.6 75.3224 20.2 74.3224 20.64C73.3424 21.06 72.1924 21.27 70.8724 21.27ZM85.75 7.83V15.87C85.75 16.43 85.88 16.84 86.14 17.1C86.42 17.34 86.88 17.46 87.52 17.46H89.47V21H86.83C83.29 21 81.52 19.28 81.52 15.84V7.83H79.54V4.38H81.52V0.269999H85.75V4.38H89.47V7.83H85.75ZM117.549 21H113.349L103.839 6.63V21H99.6393V0.0299982H103.839L113.349 14.43V0.0299982H117.549V21ZM137.15 12.33C137.15 12.93 137.11 13.47 137.03 13.95H124.88C124.98 15.15 125.4 16.09 126.14 16.77C126.88 17.45 127.79 17.79 128.87 17.79C130.43 17.79 131.54 17.12 132.2 15.78H136.73C136.25 17.38 135.33 18.7 133.97 19.74C132.61 20.76 130.94 21.27 128.96 21.27C127.36 21.27 125.92 20.92 124.64 20.22C123.38 19.5 122.39 18.49 121.67 17.19C120.97 15.89 120.62 14.39 120.62 12.69C120.62 10.97 120.97 9.46 121.67 8.16C122.37 6.86 123.35 5.86 124.61 5.16C125.87 4.46 127.32 4.11 128.96 4.11C130.54 4.11 131.95 4.45 133.19 5.13C134.45 5.81 135.42 6.78 136.1 8.04C136.8 9.28 137.15 10.71 137.15 12.33ZM132.8 11.13C132.78 10.05 132.39 9.19 131.63 8.55C130.87 7.89 129.94 7.56 128.84 7.56C127.8 7.56 126.92 7.88 126.2 8.52C125.5 9.14 125.07 10.01 124.91 11.13H132.8ZM163.256 4.38L158.396 21H153.866L150.836 9.39L147.806 21H143.246L138.356 4.38H142.616L145.556 17.04L148.736 4.38H153.176L156.296 17.01L159.236 4.38H163.256ZM171.888 21.27C170.528 21.27 169.308 21.03 168.228 20.55C167.148 20.05 166.288 19.38 165.648 18.54C165.028 17.7 164.688 16.77 164.628 15.75H168.858C168.938 16.39 169.248 16.92 169.788 17.34C170.348 17.76 171.038 17.97 171.858 17.97C172.658 17.97 173.278 17.81 173.718 17.49C174.178 17.17 174.408 16.76 174.408 16.26C174.408 15.72 174.128 15.32 173.568 15.06C173.028 14.78 172.158 14.48 170.958 14.16C169.718 13.86 168.698 13.55 167.898 13.23C167.118 12.91 166.438 12.42 165.858 11.76C165.298 11.1 165.018 10.21 165.018 9.09C165.018 8.17 165.278 7.33 165.798 6.57C166.338 5.81 167.098 5.21 168.078 4.77C169.078 4.33 170.248 4.11 171.588 4.11C173.568 4.11 175.148 4.61 176.328 5.61C177.508 6.59 178.158 7.92 178.278 9.6H174.258C174.198 8.94 173.918 8.42 173.418 8.04C172.938 7.64 172.288 7.44 171.468 7.44C170.708 7.44 170.118 7.58 169.698 7.86C169.298 8.14 169.098 8.53 169.098 9.03C169.098 9.59 169.378 10.02 169.938 10.32C170.498 10.6 171.368 10.89 172.548 11.19C173.748 11.49 174.738 11.8 175.518 12.12C176.298 12.44 176.968 12.94 177.528 13.62C178.108 14.28 178.408 15.16 178.428 16.26C178.428 17.22 178.158 18.08 177.618 18.84C177.098 19.6 176.338 20.2 175.338 20.64C174.358 21.06 173.208 21.27 171.888 21.27Z" fill="#050931"/>
</svg>
